<?xml version="1.0" standalone="no"?>
<!DOCTYPE svg PUBLIC "-//W3C//DTD SVG 20010904//EN"
 "http://www.w3.org/TR/2001/REC-SVG-20010904/DTD/svg10.dtd">
<svg version="1.0" xmlns="http://www.w3.org/2000/svg"
 width="1280.000000pt" height="720.000000pt" viewBox="0 0 1280.000000 720.000000"
 preserveAspectRatio="xMidYMid meet">

<g transform="translate(0.000000,720.000000) scale(0.100000,-0.100000)"
fill="#000000" stroke="none">
<path d="M0 7180 c0 -20 7 -20 1040 -20 1038 0 1041 0 1030 20 -11 20 -21 20
-1040 20 -1023 0 -1030 0 -1030 -20z"/>
<path d="M2090 7180 c10 -19 21 -20 230 -20 213 0 220 1 220 20 0 19 -7 20
-230 20 -228 0 -231 0 -220 -20z"/>
<path d="M11780 7192 c0 -5 -20 -159 -45 -343 -24 -184 -51 -386 -59 -449 -60
-455 -629 -4734 -683 -5125 -66 -483 -67 -493 -67 -720 -1 -237 7 -318 45
-440 10 -34 28 -71 39 -83 l21 -22 884 0 885 0 0 3595 0 3595 -510 0 c-280 0
-510 -4 -510 -8z m134 -6236 l19 -35 -32 -55 c-17 -31 -31 -59 -31 -62 0 -4
47 -4 105 0 82 5 105 4 104 -6 0 -7 -28 -60 -62 -118 -44 -74 -68 -105 -81
-105 -14 0 -47 50 -128 193 -61 106 -107 200 -104 208 4 11 26 14 98 14 l93 0
19 -34z m-516 -468 c7 -7 12 -23 12 -36 0 -22 -3 -24 -34 -18 -35 7 -66 0 -66
-15 0 -5 19 -18 43 -30 64 -32 77 -48 77 -89 0 -66 -71 -103 -165 -86 -35 7
-36 9 -29 39 3 18 7 33 8 34 1 1 21 -3 44 -9 32 -8 46 -7 57 2 19 16 12 23
-46 53 -106 53 -75 165 47 167 22 0 45 -5 52 -12z m130 -4 c21 -14 22 -22 22
-145 l0 -129 -40 0 -40 0 0 145 c0 132 2 145 18 145 10 0 28 -7 40 -16z m260
4 c7 -7 12 -23 12 -36 0 -22 -3 -24 -30 -19 -46 10 -87 -10 -100 -47 -21 -64
15 -110 84 -108 41 0 44 -2 48 -29 5 -33 -5 -39 -71 -39 -58 0 -108 30 -134
80 -35 67 -1 166 67 196 39 17 108 18 124 2z m269 -31 c29 -33 33 -43 33 -94
0 -70 -14 -100 -60 -131 -51 -35 -129 -28 -173 16 -26 26 -31 40 -35 90 -8
107 47 167 147 159 47 -3 59 -9 88 -40z m256 34 c89 -34 111 -172 39 -244 -59
-59 -169 -45 -212 26 -24 39 -26 116 -5 158 30 58 112 85 178 60z m296 -15
c26 -24 27 -67 1 -91 -19 -17 -19 -18 5 -37 27 -21 32 -56 14 -90 -16 -30 -70
-48 -144 -48 l-65 0 0 138 c0 76 3 142 8 146 4 4 41 6 83 4 58 -2 82 -8 98
-22z"/>
<path d="M11916 418 c-9 -12 -16 -41 -16 -63 0 -50 23 -85 55 -85 32 0 55 35
55 85 0 50 -23 85 -55 85 -13 0 -31 -10 -39 -22z"/>
<path d="M12226 427 c-22 -16 -31 -83 -17 -119 6 -17 21 -30 37 -34 37 -10 64
24 64 80 0 70 -40 105 -84 73z"/>
<path d="M12490 414 c0 -22 4 -25 28 -22 19 2 28 9 30 26 3 19 -1 22 -27 22
-27 0 -31 -4 -31 -26z"/>
<path d="M12490 300 c0 -29 2 -31 33 -28 27 2 32 7 32 28 0 21 -5 26 -32 28
-31 3 -33 1 -33 -28z"/>
<path d="M0 6668 c0 -395 2 -469 13 -453 34 51 357 633 357 643 0 7 -34 73
-76 147 l-76 135 -109 0 -109 0 0 -472z"/>
<path d="M243 7133 c2 -5 81 -145 174 -313 94 -168 185 -331 202 -362 l33 -58
139 0 140 0 -12 23 c-6 12 -82 148 -168 302 -172 310 -181 337 -132 389 l24
26 -202 0 c-111 0 -200 -3 -198 -7z"/>
<path d="M639 7111 c-53 -53 -48 -67 144 -410 94 -170 175 -306 179 -302 4 3
84 144 178 311 187 336 192 349 141 401 l-29 29 -292 0 -292 0 -29 -29z"/>
<path d="M1306 7103 c19 -27 24 -47 21 -69 -3 -16 -84 -171 -181 -344 -97
-173 -176 -317 -176 -320 0 -3 31 -61 69 -129 l69 -123 25 43 c111 194 387
690 387 697 0 5 -34 71 -76 146 l-76 136 -44 0 -43 0 25 -37z"/>
<path d="M1430 7065 c23 -41 115 -207 205 -368 l163 -292 159 -3 159 -2 97
174 97 174 -108 194 -109 193 -352 3 -353 2 42 -75z"/>
<path d="M2131 7103 c12 -21 24 -40 26 -42 1 -2 6 5 9 15 4 10 16 29 27 42
l20 22 -52 0 -53 0 23 -37z"/>
<path d="M2215 7118 c-43 -38 -44 -85 -1 -162 40 -72 67 -96 106 -96 39 0 65
23 104 94 45 80 46 117 7 157 -28 27 -34 29 -110 29 -69 0 -84 -3 -106 -22z"/>
<path d="M2449 7114 c12 -15 21 -33 21 -40 0 -25 15 -15 38 26 l23 40 -51 0
-51 0 20 -26z"/>
<path d="M2437 6944 l-108 -194 90 -162 c52 -93 92 -156 95 -147 3 7 16 70 28
139 19 104 23 158 22 320 0 107 -5 204 -10 216 -8 18 -25 -7 -117 -172z"/>
<path d="M7617 6913 c-4 -3 -7 -49 -7 -100 l0 -95 -36 22 c-27 17 -45 21 -80
17 -92 -10 -133 -70 -134 -197 0 -89 19 -134 69 -167 45 -31 98 -30 145 2 44
30 42 30 49 5 4 -15 14 -20 41 -20 l36 0 0 270 0 270 -38 0 c-21 0 -42 -3 -45
-7z m-38 -259 c29 -24 31 -31 31 -89 0 -58 -2 -65 -31 -89 -56 -47 -105 -25
-119 54 -14 77 18 150 66 150 12 0 36 -12 53 -26z"/>
<path d="M8627 6913 c-4 -3 -7 -49 -7 -100 l0 -95 -36 22 c-27 17 -45 21 -80
17 -92 -10 -133 -70 -134 -197 0 -89 19 -134 69 -167 45 -31 98 -30 145 2 44
30 42 30 49 5 4 -15 14 -20 41 -20 l36 0 0 270 0 270 -38 0 c-21 0 -42 -3 -45
-7z m-38 -259 c29 -24 31 -31 31 -89 0 -58 -2 -65 -31 -89 -56 -47 -105 -25
-119 54 -14 77 18 150 66 150 12 0 36 -12 53 -26z"/>
<path d="M9457 6913 c-4 -3 -7 -49 -7 -100 l0 -95 -36 22 c-27 17 -45 21 -80
17 -92 -10 -133 -70 -134 -197 0 -89 19 -134 69 -167 45 -31 98 -30 145 2 44
30 42 30 49 5 4 -15 14 -20 41 -20 l36 0 0 270 0 270 -38 0 c-21 0 -42 -3 -45
-7z m-38 -259 c29 -24 31 -31 31 -89 0 -58 -2 -65 -31 -89 -56 -47 -105 -25
-119 54 -14 77 18 150 66 150 12 0 36 -12 53 -26z"/>
<path d="M3357 6875 c-100 -37 -148 -107 -155 -224 -6 -103 10 -156 62 -207
72 -72 214 -94 320 -50 l36 15 0 124 c0 105 -3 126 -16 131 -9 3 -51 6 -94 6
-70 0 -81 -3 -90 -20 -6 -12 -8 -30 -5 -40 5 -16 15 -20 56 -20 l50 0 -3 -62
c-3 -61 -4 -63 -33 -68 -65 -13 -136 20 -165 76 -24 46 -20 166 6 200 54 73
126 90 225 54 51 -18 63 -20 70 -9 12 19 2 61 -19 77 -43 33 -176 42 -245 17z"/>
<path d="M2357 6854 c-3 -3 -22 -6 -41 -6 -20 0 -36 -2 -36 -4 0 -10 35 -74
40 -74 3 0 16 20 28 45 21 43 23 53 9 39z"/>
<path d="M264 6628 c-65 -116 -120 -215 -122 -220 -2 -4 107 -8 243 -8 136 0
245 4 243 8 -6 15 -240 432 -242 432 -1 0 -56 -95 -122 -212z"/>
<path d="M1411 6625 c-67 -120 -120 -219 -118 -221 2 -3 112 -3 245 -2 l240 3
-115 205 c-63 113 -118 211 -122 219 -5 9 -49 -60 -130 -204z"/>
<path d="M3800 6738 c-67 -34 -92 -89 -88 -190 3 -82 17 -111 72 -152 39 -30
156 -30 206 0 78 45 111 188 64 279 -26 52 -89 85 -159 85 -33 0 -67 -8 -95
-22z m125 -62 c39 -17 50 -43 49 -119 -1 -69 -28 -102 -84 -102 -58 0 -81 31
-82 108 -1 73 26 114 80 126 1 1 18 -5 37 -13z"/>
<path d="M4605 6744 c-73 -38 -99 -96 -93 -203 4 -74 19 -106 70 -144 33 -24
128 -32 193 -15 48 12 50 14 50 48 0 26 -4 34 -15 32 -106 -24 -122 -25 -155
-9 -24 12 -37 26 -43 49 l-8 33 113 3 c101 2 114 5 123 23 15 28 -5 119 -32
149 -45 48 -144 65 -203 34z m129 -76 c9 -12 16 -33 16 -45 0 -22 -4 -23 -70
-23 -68 0 -70 1 -70 25 0 59 91 90 124 43z"/>
<path d="M5040 6731 l-30 -29 0 24 c0 21 -4 24 -40 24 l-40 0 0 -185 0 -185
45 0 45 0 0 114 c0 109 1 116 26 146 23 26 33 31 63 28 l36 -3 0 45 c0 45 0
45 -38 48 -30 3 -43 -2 -67 -27z"/>
<path d="M5355 6749 c-11 -6 -30 -21 -42 -32 l-23 -20 0 26 c0 25 -3 27 -40
27 l-40 0 0 -185 0 -185 45 0 45 0 0 124 0 125 33 25 c41 31 61 32 87 6 18
-18 20 -33 20 -151 l0 -130 48 3 47 3 3 100 c7 205 -18 264 -114 272 -27 2
-58 -2 -69 -8z"/>
<path d="M5693 6749 c-38 -11 -66 -48 -57 -73 7 -19 10 -18 91 4 55 16 91 6
104 -27 15 -40 5 -53 -43 -53 -61 0 -117 -18 -144 -45 -36 -36 -34 -112 4
-148 40 -39 109 -47 157 -18 43 25 45 25 45 6 0 -11 11 -15 40 -15 l40 0 0
145 c0 166 -9 197 -65 221 -38 16 -123 17 -172 3z m147 -238 c0 -36 -40 -71
-79 -71 -33 0 -51 17 -51 46 0 32 36 54 87 54 41 0 43 -1 43 -29z"/>
<path d="M6185 6749 c-11 -6 -30 -21 -42 -32 l-23 -20 0 26 c0 25 -3 27 -40
27 l-40 0 0 -185 0 -185 45 0 45 0 0 124 0 125 33 25 c41 31 61 32 87 6 18
-18 20 -33 20 -151 l0 -130 48 3 47 3 3 100 c7 205 -18 264 -114 272 -27 2
-58 -2 -69 -8z"/>
<path d="M6550 6749 c-67 -27 -100 -89 -100 -191 0 -88 24 -140 79 -167 25
-13 41 -30 45 -46 9 -36 1 -45 -40 -45 -29 0 -34 -3 -34 -24 0 -28 16 -36 76
-36 70 0 99 40 74 104 -9 24 -6 27 27 41 43 18 53 30 53 66 0 37 -8 40 -51 17
-78 -40 -130 -2 -131 97 -1 97 56 139 133 100 33 -17 48 -10 49 23 1 57 -103
92 -180 61z"/>
<path d="M6853 6749 c-38 -11 -66 -48 -57 -73 7 -19 10 -18 91 4 55 16 91 6
104 -27 15 -40 5 -53 -43 -53 -61 0 -117 -18 -144 -45 -36 -36 -34 -112 4
-148 40 -39 109 -47 157 -18 43 25 45 25 45 6 0 -11 11 -15 40 -15 l40 0 0
145 c0 166 -9 197 -65 221 -38 16 -123 17 -172 3z m147 -238 c0 -36 -40 -71
-79 -71 -33 0 -51 17 -51 46 0 32 36 54 87 54 41 0 43 -1 43 -29z"/>
<path d="M7885 6744 c-73 -38 -99 -96 -93 -203 4 -74 19 -106 70 -144 33 -24
128 -32 193 -15 48 12 50 14 50 48 0 26 -4 34 -15 32 -106 -24 -122 -25 -155
-9 -24 12 -37 26 -43 49 l-8 33 113 3 c101 2 114 5 123 23 15 28 -5 119 -32
149 -45 48 -144 65 -203 34z m129 -76 c9 -12 16 -33 16 -45 0 -22 -4 -23 -70
-23 -68 0 -70 1 -70 25 0 59 91 90 124 43z"/>
<path d="M8873 6749 c-38 -11 -66 -48 -57 -73 7 -19 10 -18 91 4 55 16 91 6
104 -27 15 -40 5 -53 -43 -53 -61 0 -117 -18 -144 -45 -36 -36 -34 -112 4
-148 40 -39 109 -47 157 -18 43 25 45 25 45 6 0 -11 11 -15 40 -15 l40 0 0
145 c0 166 -9 197 -65 221 -38 16 -123 17 -172 3z m147 -238 c0 -36 -40 -71
-79 -71 -33 0 -51 17 -51 46 0 32 36 54 87 54 41 0 43 -1 43 -29z"/>
<path d="M9720 6738 c-67 -34 -92 -89 -88 -190 3 -82 17 -111 72 -152 39 -30
156 -30 206 0 78 45 111 188 64 279 -26 52 -89 85 -159 85 -33 0 -67 -8 -95
-22z m125 -62 c39 -17 50 -43 49 -119 -1 -69 -28 -102 -84 -102 -58 0 -81 31
-82 108 -1 73 26 114 80 126 1 1 18 -5 37 -13z"/>
<path d="M10124 6746 c-42 -18 -64 -52 -64 -97 0 -50 31 -86 101 -116 65 -28
74 -41 53 -72 -18 -25 -59 -27 -111 -6 -46 19 -43 21 -43 -20 0 -40 17 -52 83
-61 83 -12 161 30 173 91 11 58 -15 96 -92 135 -58 29 -69 39 -69 60 0 23 3
25 50 24 28 -1 60 -5 73 -9 22 -7 23 -5 20 26 -2 24 -10 37 -28 46 -33 17
-107 16 -146 -1z"/>
<path d="M4120 6733 c0 -23 99 -324 113 -340 5 -8 33 -13 67 -13 l58 0 56 168
c31 92 56 175 56 185 0 13 -9 17 -43 17 l-44 0 -38 -127 c-21 -71 -41 -131
-45 -135 -3 -4 -24 52 -46 125 l-39 132 -48 3 c-40 3 -47 0 -47 -15z"/>
<path d="M2297 6688 c-21 -36 -345 -615 -483 -861 l-43 -77 307 2 307 3 37
200 c21 110 49 255 62 322 l23 122 -93 167 -92 166 -25 -44z"/>
<path d="M63 6266 c-90 -162 -89 -174 19 -368 l83 -148 143 0 c162 0 185 -7
219 -67 l20 -34 201 360 c111 199 202 363 202 366 0 3 -186 5 -412 5 l-413 0
-62 -114z"/>
<path d="M1197 6240 l-78 -140 128 -229 c117 -210 129 -227 136 -201 4 16 21
40 38 54 30 25 34 26 182 26 l152 0 170 305 c94 168 172 310 173 315 2 6 -144
10 -410 10 l-413 0 -78 -140z"/>
<path d="M935 6313 c-11 -21 -21 -40 -22 -43 -2 -3 19 -5 46 -5 l49 0 -13 25
c-8 14 -20 33 -27 43 -13 17 -15 16 -33 -20z"/>
<path d="M902 6233 c-17 -15 -196 -330 -479 -840 l-35 -63 415 0 415 0 76 136
c42 75 76 140 76 144 0 16 -342 616 -357 628 -24 18 -87 15 -111 -5z"/>
<path d="M0 5877 l0 -127 74 0 74 0 -65 118 c-36 64 -70 121 -74 127 -5 5 -9
-47 -9 -118z"/>
<path d="M0 5360 l0 -371 91 3 90 3 121 215 c66 118 122 220 124 225 3 7 -11
9 -36 7 -35 -4 -44 0 -73 29 -18 19 -61 85 -95 147 l-63 112 -79 0 -80 0 0
-370z"/>
<path d="M180 5726 c0 -12 133 -236 149 -250 26 -23 86 -23 112 0 11 9 33 42
49 72 38 71 40 120 4 156 -26 26 -29 26 -170 26 -79 0 -144 -2 -144 -4z"/>
<path d="M1437 5719 c-25 -15 -47 -70 -40 -100 11 -44 77 -149 98 -155 34 -11
76 -6 96 12 15 14 92 143 138 232 l12 22 -143 0 c-83 0 -151 -5 -161 -11z"/>
<path d="M1748 5708 c-8 -13 -39 -67 -69 -122 -65 -119 -97 -149 -151 -144
-21 2 -38 2 -38 0 0 -2 91 -167 202 -367 161 -290 205 -361 212 -347 5 9 99
176 208 370 l198 354 -77 139 -78 139 -196 0 c-193 0 -197 0 -211 -22z"/>
<path d="M2183 5718 c3 -7 36 -68 74 -136 l70 -123 22 113 c12 62 24 123 26
136 5 22 4 22 -96 22 -77 0 -100 -3 -96 -12z"/>
<path d="M1188 5243 c-107 -192 -201 -358 -207 -371 -10 -19 -3 -38 66 -162
l78 -140 343 0 c284 0 348 3 372 15 30 16 43 43 42 87 0 15 -108 218 -247 470
-136 243 -248 444 -250 446 -1 1 -90 -154 -197 -345z"/>
<path d="M2193 5209 l-121 -219 84 0 c46 0 84 2 84 4 0 2 18 100 41 216 22
117 39 214 37 215 -2 1 -58 -96 -125 -216z"/>
<path d="M2510 5326 l0 -64 38 1 c36 2 37 3 37 42 0 37 -2 40 -27 38 -23 -1
-28 2 -28 23 0 13 -4 24 -10 24 -6 0 -10 -28 -10 -64z m60 -21 c0 -25 -23 -35
-35 -15 -10 16 2 40 20 40 9 0 15 -9 15 -25z"/>
<path d="M2397 5362 c-35 -39 -11 -102 38 -102 32 0 55 25 55 60 0 54 -59 80
-93 42z m69 -17 c10 -25 -5 -65 -24 -65 -22 0 -42 19 -42 40 0 35 55 56 66 25z"/>
<path d="M2620 5370 c0 -5 5 -10 10 -10 6 0 10 5 10 10 0 6 -4 10 -10 10 -5 0
-10 -4 -10 -10z"/>
<path d="M2840 5370 c0 -5 5 -10 10 -10 6 0 10 5 10 10 0 6 -4 10 -10 10 -5 0
-10 -4 -10 -10z"/>
<path d="M2767 5357 c-10 -26 8 -92 26 -95 9 -2 17 1 17 7 0 6 -4 11 -10 11
-14 0 -12 48 2 52 9 3 8 9 -4 21 -20 20 -24 21 -31 4z"/>
<path d="M2620 5300 c0 -27 -4 -50 -10 -50 -5 0 -10 -4 -10 -10 0 -16 27 -11
34 6 10 26 7 104 -4 104 -5 0 -10 -22 -10 -50z"/>
<path d="M2672 5338 c-16 -16 -15 -53 2 -68 17 -14 58 -10 63 6 2 7 -5 10 -20
7 -14 -3 -28 0 -31 6 -5 7 4 11 23 11 19 0 31 5 31 13 0 18 -21 37 -40 37 -9
0 -21 -5 -28 -12z m41 -15 c-7 -2 -19 -2 -25 0 -7 3 -2 5 12 5 14 0 19 -2 13
-5z"/>
<path d="M2840 5305 c0 -25 5 -45 10 -45 6 0 10 20 10 45 0 25 -4 45 -10 45
-5 0 -10 -20 -10 -45z"/>
<path d="M2887 5305 c8 -25 21 -45 28 -45 7 0 20 20 28 45 9 25 12 45 6 45 -5
0 -12 -8 -15 -17 -15 -46 -17 -48 -27 -15 -5 17 -16 32 -23 32 -10 0 -10 -9 3
-45z"/>
<path d="M2980 5336 c-28 -35 11 -93 48 -70 21 14 28 64 10 75 -20 13 -44 11
-58 -5z m50 -31 c0 -25 -23 -35 -35 -15 -10 16 2 40 20 40 9 0 15 -9 15 -25z"/>
<path d="M3080 5335 c0 -8 5 -15 10 -15 6 0 10 7 10 15 0 8 -4 15 -10 15 -5 0
-10 -7 -10 -15z"/>
<path d="M207 5006 c-93 -167 -171 -314 -174 -325 -7 -29 14 -77 43 -96 20
-13 89 -15 524 -15 298 0 500 4 498 9 -1 5 -93 172 -203 370 l-200 361 -160 0
-160 0 -168 -304z"/>
<path d="M743 5252 c17 -32 72 -130 122 -219 49 -89 93 -159 96 -157 8 4 239
419 239 428 0 3 -110 6 -245 6 l-245 0 33 -58z"/>
<path d="M3080 5275 c0 -8 5 -15 10 -15 6 0 10 7 10 15 0 8 -4 15 -10 15 -5 0
-10 -7 -10 -15z"/>
<path d="M2690 5150 c0 -5 5 -10 10 -10 6 0 10 5 10 10 0 6 -4 10 -10 10 -5 0
-10 -4 -10 -10z"/>
<path d="M3150 5150 c0 -5 5 -10 10 -10 6 0 10 5 10 10 0 6 -4 10 -10 10 -5 0
-10 -4 -10 -10z"/>
<path d="M3370 5143 c0 -14 2 -15 9 -4 6 9 11 10 15 2 4 -6 12 -11 19 -11 12
0 -23 29 -35 30 -5 0 -8 -8 -8 -17z"/>
<path d="M3640 5135 c0 -18 -4 -23 -15 -19 -21 8 -45 -14 -45 -41 0 -28 19
-45 48 -42 20 1 22 6 22 64 0 35 -2 63 -5 63 -3 0 -5 -11 -5 -25z m-5 -60 c0
-33 -28 -47 -39 -19 -10 25 3 56 22 52 11 -2 17 -13 17 -33z"/>
<path d="M4380 5095 c0 -37 4 -65 10 -65 6 0 10 28 10 65 0 37 -4 65 -10 65
-6 0 -10 -28 -10 -65z"/>
<path d="M4830 5135 c0 -18 -4 -23 -15 -19 -21 8 -45 -14 -45 -41 0 -28 19
-45 48 -42 20 1 22 6 22 64 0 35 -2 63 -5 63 -3 0 -5 -11 -5 -25z m-5 -60 c0
-33 -28 -47 -39 -19 -10 25 3 56 22 52 11 -2 17 -13 17 -33z"/>
<path d="M5210 5135 c0 -18 -4 -23 -15 -19 -21 8 -45 -14 -45 -41 0 -28 19
-45 48 -42 20 1 22 6 22 64 0 35 -2 63 -5 63 -3 0 -5 -11 -5 -25z m-5 -60 c0
-33 -28 -47 -39 -19 -10 25 3 56 22 52 11 -2 17 -13 17 -33z"/>
<path d="M5320 5150 c0 -5 5 -10 10 -10 6 0 10 5 10 10 0 6 -4 10 -10 10 -5 0
-10 -4 -10 -10z"/>
<path d="M5686 5138 c-8 -32 -7 -111 2 -125 4 -6 7 24 7 68 0 43 -1 79 -1 79
-1 0 -4 -10 -8 -22z"/>
<path d="M5900 5150 c0 -5 5 -10 10 -10 6 0 10 5 10 10 0 6 -4 10 -10 10 -5 0
-10 -4 -10 -10z"/>
<path d="M6340 5135 c0 -18 -4 -23 -15 -19 -21 8 -45 -14 -45 -41 0 -28 19
-45 48 -42 20 1 22 6 22 64 0 35 -2 63 -5 63 -3 0 -5 -11 -5 -25z m-5 -60 c0
-33 -28 -47 -39 -19 -10 25 3 56 22 52 11 -2 17 -13 17 -33z"/>
<path d="M6700 5135 c0 -18 -4 -23 -15 -19 -21 8 -45 -14 -45 -41 0 -28 19
-45 48 -42 20 1 22 6 22 64 0 35 -2 63 -5 63 -3 0 -5 -11 -5 -25z m-5 -60 c0
-33 -28 -47 -39 -19 -10 25 3 56 22 52 11 -2 17 -13 17 -33z"/>
<path d="M6890 5135 c0 -18 -4 -23 -15 -19 -21 8 -45 -14 -45 -41 0 -28 19
-45 48 -42 20 1 22 6 22 64 0 35 -2 63 -5 63 -3 0 -5 -11 -5 -25z m-5 -60 c0
-33 -28 -47 -39 -19 -10 25 3 56 22 52 11 -2 17 -13 17 -33z"/>
<path d="M7120 5141 c5 -11 10 -38 10 -61 0 -23 -5 -50 -10 -61 -6 -11 -7 -19
-2 -19 12 0 22 35 22 80 0 45 -10 80 -22 80 -5 0 -4 -8 2 -19z"/>
<path d="M7540 5135 c0 -18 -4 -23 -15 -19 -21 8 -45 -14 -45 -41 0 -28 19
-45 48 -42 20 1 22 6 22 64 0 35 -2 63 -5 63 -3 0 -5 -11 -5 -25z m-5 -60 c0
-33 -28 -47 -39 -19 -10 25 3 56 22 52 11 -2 17 -13 17 -33z"/>
<path d="M7722 5140 c-4 -10 -5 -41 -2 -67 l5 -48 3 42 c2 29 8 43 20 46 16 4
15 5 0 6 -10 0 -18 5 -18 11 0 5 8 14 18 19 16 10 16 10 -1 11 -10 0 -21 -9
-25 -20z"/>
<path d="M7966 5144 c-5 -14 -4 -15 9 -4 17 14 19 20 6 20 -5 0 -12 -7 -15
-16z"/>
<path d="M8730 5095 c0 -37 4 -65 10 -65 6 0 10 28 10 65 0 37 -4 65 -10 65
-6 0 -10 -28 -10 -65z"/>
<path d="M9066 5144 c-5 -14 -4 -15 9 -4 17 14 19 20 6 20 -5 0 -12 -7 -15
-16z"/>
<path d="M9190 5150 c0 -5 5 -10 10 -10 6 0 10 5 10 10 0 6 -4 10 -10 10 -5 0
-10 -4 -10 -10z"/>
<path d="M9420 5135 c0 -18 -4 -23 -15 -19 -21 8 -45 -14 -45 -41 0 -28 19
-45 48 -42 20 1 22 6 22 64 0 35 -2 63 -5 63 -3 0 -5 -11 -5 -25z m-5 -60 c0
-33 -28 -47 -39 -19 -10 25 3 56 22 52 11 -2 17 -13 17 -33z"/>
<path d="M9650 5135 c0 -18 -4 -23 -15 -19 -21 8 -45 -14 -45 -41 0 -28 19
-45 48 -42 20 1 22 6 22 64 0 35 -2 63 -5 63 -3 0 -5 -11 -5 -25z m-5 -60 c0
-33 -28 -47 -39 -19 -10 25 3 56 22 52 11 -2 17 -13 17 -33z"/>
<path d="M9840 5135 c0 -18 -4 -23 -15 -19 -21 8 -45 -14 -45 -41 0 -28 19
-45 48 -42 20 1 22 6 22 64 0 35 -2 63 -5 63 -3 0 -5 -11 -5 -25z m-5 -60 c0
-33 -28 -47 -39 -19 -10 25 3 56 22 52 11 -2 17 -13 17 -33z"/>
<path d="M10580 5150 c0 -5 5 -10 10 -10 6 0 10 5 10 10 0 6 -4 10 -10 10 -5
0 -10 -4 -10 -10z"/>
<path d="M2405 5117 c-7 -18 -16 -46 -20 -63 -5 -24 -4 -26 5 -11 13 21 58 23
66 2 4 -8 9 -15 14 -15 4 0 -2 27 -14 60 -12 33 -25 60 -29 60 -4 0 -14 -15
-22 -33z m34 -17 c9 -28 8 -30 -14 -30 -22 0 -23 2 -14 30 6 17 12 30 14 30 2
0 8 -13 14 -30z"/>
<path d="M4422 5124 c-7 -8 -8 -14 -3 -14 5 0 11 -17 13 -37 2 -29 8 -38 23
-40 16 -1 16 -1 3 3 -13 4 -18 16 -18 40 0 25 4 34 18 35 13 0 14 2 2 6 -8 3
-17 9 -20 13 -3 4 -11 2 -18 -6z"/>
<path d="M4962 5124 c-7 -8 -8 -14 -3 -14 5 0 11 -17 13 -37 2 -29 8 -38 23
-40 16 -1 16 -1 3 3 -13 4 -18 16 -18 40 0 25 4 34 18 35 13 0 14 2 2 6 -8 3
-17 9 -20 13 -3 4 -11 2 -18 -6z"/>
<path d="M6132 5124 c-7 -8 -8 -14 -3 -14 5 0 11 -17 13 -37 2 -29 8 -38 23
-40 16 -1 16 -1 3 3 -13 4 -18 16 -18 40 0 25 4 34 18 35 13 0 14 2 2 6 -8 3
-17 9 -20 13 -3 4 -11 2 -18 -6z"/>
<path d="M8312 5124 c-7 -8 -8 -14 -3 -14 5 0 11 -17 13 -37 2 -29 8 -38 23
-40 16 -1 16 -1 3 3 -13 4 -18 16 -18 40 0 25 4 34 18 35 13 0 14 2 2 6 -8 3
-17 9 -20 13 -3 4 -11 2 -18 -6z"/>
<path d="M10402 5124 c-7 -8 -8 -14 -3 -14 5 0 11 -17 13 -37 2 -29 8 -38 23
-40 16 -1 16 -1 3 3 -13 4 -18 16 -18 40 0 25 4 34 18 35 13 0 14 2 2 6 -8 3
-17 9 -20 13 -3 4 -11 2 -18 -6z"/>
<path d="M11042 5124 c-7 -8 -8 -14 -3 -14 5 0 11 -17 13 -37 2 -29 8 -38 23
-40 16 -1 16 -1 3 3 -13 4 -18 16 -18 40 0 25 4 34 18 35 13 0 14 2 2 6 -8 3
-17 9 -20 13 -3 4 -11 2 -18 -6z"/>
<path d="M11292 5124 c-7 -8 -8 -14 -3 -14 5 0 11 -17 13 -37 2 -29 8 -38 23
-40 16 -1 16 -1 3 3 -13 4 -18 16 -18 40 0 25 4 34 18 35 13 0 14 2 2 6 -8 3
-17 9 -20 13 -3 4 -11 2 -18 -6z"/>
<path d="M2501 5055 c1 -33 4 -50 6 -38 3 14 9 20 19 16 20 -7 44 15 44 42 0
28 -19 45 -48 42 -20 -1 -22 -6 -21 -62z m54 20 c0 -23 -4 -30 -20 -30 -21 0
-31 25 -21 51 11 28 41 12 41 -21z"/>
<path d="M2600 5106 c-28 -35 11 -93 48 -70 35 22 22 84 -18 84 -10 0 -23 -7
-30 -14z m55 -31 c0 -23 -5 -31 -21 -33 -24 -3 -38 20 -28 50 4 13 13 18 27
16 17 -2 22 -10 22 -33z"/>
<path d="M2690 5075 c0 -25 5 -45 10 -45 6 0 10 20 10 45 0 25 -4 45 -10 45
-5 0 -10 -20 -10 -45z"/>
<path d="M2740 5106 c-28 -35 11 -93 48 -70 35 22 22 84 -18 84 -10 0 -23 -7
-30 -14z m55 -31 c0 -23 -5 -31 -21 -33 -24 -3 -38 20 -28 50 4 13 13 18 27
16 17 -2 22 -10 22 -33z"/>
<path d="M2903 5113 c25 -6 21 -31 -5 -35 -30 -4 -32 -41 -3 -46 18 -3 19 -2
2 8 -9 6 -15 15 -12 21 11 17 33 9 40 -13 7 -21 8 -20 12 10 5 37 -11 63 -36
61 -13 -1 -13 -2 2 -6z"/>
<path d="M3012 5108 c-29 -29 -3 -85 35 -75 15 4 14 5 -4 6 -41 2 -41 66 0 74
21 4 21 4 2 6 -12 0 -26 -4 -33 -11z"/>
<path d="M3092 5070 c1 -40 2 -41 5 -10 2 19 11 40 20 47 13 10 13 12 -6 10
-18 -1 -21 -7 -19 -47z"/>
<path d="M3150 5075 c0 -25 5 -45 10 -45 6 0 10 20 10 45 0 25 -4 45 -10 45
-5 0 -10 -20 -10 -45z"/>
<path d="M3223 5113 c25 -6 21 -31 -5 -35 -30 -4 -32 -41 -3 -46 18 -3 19 -2
2 8 -9 6 -15 15 -12 21 11 17 33 9 40 -13 7 -21 8 -20 12 10 5 37 -11 63 -36
61 -13 -1 -13 -2 2 -6z"/>
<path d="M3292 5108 c-18 -18 -14 -53 8 -73 16 -14 18 -21 8 -28 -10 -7 -10
-8 0 -5 8 2 13 7 12 12 -1 5 4 13 12 17 9 6 7 9 -9 9 -41 0 -41 65 0 73 21 4
21 4 2 6 -12 0 -26 -4 -33 -11z"/>
<path d="M3393 5113 c25 -6 21 -31 -5 -35 -30 -4 -32 -41 -3 -46 18 -3 19 -2
2 8 -9 6 -15 15 -12 21 11 17 33 9 40 -13 7 -21 8 -20 12 10 5 37 -11 63 -36
61 -13 -1 -13 -2 2 -6z"/>
<path d="M3460 5106 c-28 -35 11 -93 48 -70 35 22 22 84 -18 84 -10 0 -23 -7
-30 -14z m55 -31 c0 -23 -5 -31 -21 -33 -24 -3 -38 20 -28 50 4 13 13 18 27
16 17 -2 22 -10 22 -33z"/>
<path d="M3692 5108 c-27 -27 -7 -78 29 -78 10 0 20 4 23 8 2 4 -7 8 -21 7
-14 0 -28 6 -30 13 -3 8 6 12 26 12 31 0 36 6 25 34 -7 19 -35 21 -52 4z m46
-15 c2 -8 -6 -13 -22 -13 -19 0 -24 4 -19 15 6 18 34 16 41 -2z"/>
<path d="M3834 5078 c1 -40 3 -43 29 -44 26 -1 27 1 26 45 l-2 46 -6 -40 c-9
-57 -38 -61 -44 -6 l-4 41 1 -42z"/>
<path d="M3931 5072 l2 -47 6 40 c4 27 12 41 24 43 14 3 17 -4 18 -40 l2 -43
6 40 c8 48 8 48 -29 51 -29 2 -30 1 -29 -44z"/>
<path d="M4018 5113 c7 -2 12 -22 12 -44 0 -21 5 -39 10 -39 6 0 10 15 10 33
0 33 -15 58 -34 56 -6 0 -5 -3 2 -6z"/>
<path d="M4103 5113 c25 -6 21 -31 -5 -35 -30 -4 -32 -41 -3 -46 18 -3 19 -2
2 8 -9 6 -15 15 -12 21 11 17 33 9 40 -13 7 -21 8 -20 12 10 5 37 -11 63 -36
61 -13 -1 -13 -2 2 -6z"/>
<path d="M4212 5108 c-29 -29 -3 -85 35 -75 15 4 14 5 -4 6 -41 2 -41 66 0 74
21 4 21 4 2 6 -12 0 -26 -4 -33 -11z"/>
<path d="M4294 5078 c1 -40 3 -43 29 -44 26 -1 27 1 26 45 l-2 46 -6 -40 c-9
-57 -38 -61 -44 -6 l-4 41 1 -42z"/>
<path d="M4494 5078 c1 -40 3 -43 29 -44 26 -1 27 1 26 45 l-2 46 -6 -40 c-9
-57 -38 -61 -44 -6 l-4 41 1 -42z"/>
<path d="M4592 5070 c1 -40 2 -41 5 -10 2 19 11 40 20 47 13 10 13 12 -6 10
-18 -1 -21 -7 -19 -47z"/>
<path d="M4683 5113 c25 -6 21 -31 -5 -35 -30 -4 -32 -41 -3 -46 18 -3 19 -2
2 8 -9 6 -15 15 -12 21 11 17 33 9 40 -13 7 -21 8 -20 12 10 5 37 -11 63 -36
61 -13 -1 -13 -2 2 -6z"/>
<path d="M4903 5113 c25 -6 21 -31 -5 -35 -30 -4 -32 -41 -3 -46 18 -3 19 -2
2 8 -9 6 -15 15 -12 21 11 17 33 9 40 -13 7 -21 8 -20 12 10 5 37 -11 63 -36
61 -13 -1 -13 -2 2 -6z"/>
<path d="M5053 5113 c25 -6 21 -31 -5 -35 -30 -4 -32 -41 -3 -46 18 -3 19 -2
2 8 -9 6 -15 15 -12 21 11 17 33 9 40 -13 7 -21 8 -20 12 10 5 37 -11 63 -36
61 -13 -1 -13 -2 2 -6z"/>
<path d="M5262 5070 c1 -40 2 -41 5 -10 2 19 11 40 20 47 13 10 13 12 -6 10
-18 -1 -21 -7 -19 -47z"/>
<path d="M5320 5075 c0 -25 5 -45 10 -45 6 0 10 20 10 45 0 25 -4 45 -10 45
-5 0 -10 -20 -10 -45z"/>
<path d="M5361 5116 c-2 -19 23 -86 31 -86 9 0 21 26 32 70 3 14 -3 7 -13 -15
-16 -35 -20 -37 -26 -20 -13 37 -24 60 -24 51z"/>
<path d="M5462 5108 c-27 -27 -7 -78 29 -78 10 0 20 4 23 8 2 4 -7 8 -21 7
-14 0 -28 6 -30 13 -3 8 6 12 26 12 31 0 36 6 25 34 -7 19 -35 21 -52 4z m46
-15 c2 -8 -6 -13 -22 -13 -19 0 -24 4 -19 15 6 18 34 16 41 -2z"/>
<path d="M5551 5070 l2 -45 6 40 c4 27 12 41 24 43 14 3 17 -4 17 -37 0 -23 5
-41 10 -41 13 0 13 46 0 71 -7 12 -20 18 -35 17 -23 -2 -25 -6 -24 -48z"/>
<path d="M5740 5106 c-28 -35 11 -93 48 -70 35 22 22 84 -18 84 -10 0 -23 -7
-30 -14z m55 -31 c0 -23 -5 -31 -21 -33 -24 -3 -38 20 -28 50 4 13 13 18 27
16 17 -2 22 -10 22 -33z"/>
<path d="M5842 5070 c1 -40 2 -41 5 -10 2 19 11 40 20 47 13 10 13 12 -6 10
-18 -1 -21 -7 -19 -47z"/>
<path d="M5900 5075 c0 -25 5 -45 10 -45 6 0 10 20 10 45 0 25 -4 45 -10 45
-5 0 -10 -20 -10 -45z"/>
<path d="M5952 5108 c-27 -27 -7 -78 29 -78 10 0 20 4 23 8 2 4 -7 8 -21 7
-14 0 -28 6 -30 13 -3 8 6 12 26 12 31 0 36 6 25 34 -7 19 -35 21 -52 4z m46
-15 c2 -8 -6 -13 -22 -13 -19 0 -24 4 -19 15 6 18 34 16 41 -2z"/>
<path d="M6041 5070 l2 -45 6 40 c4 27 12 41 24 43 14 3 17 -4 17 -37 0 -23 5
-41 10 -41 13 0 13 46 0 71 -7 12 -20 18 -35 17 -23 -2 -25 -6 -24 -48z"/>
<path d="M6223 5113 c25 -6 21 -31 -5 -35 -30 -4 -32 -41 -3 -46 18 -3 19 -2
2 8 -9 6 -15 15 -12 21 11 17 33 9 40 -13 7 -21 8 -20 12 10 5 37 -11 63 -36
61 -13 -1 -13 -2 2 -6z"/>
<path d="M6413 5113 c25 -6 21 -31 -5 -35 -30 -4 -32 -41 -3 -46 18 -3 19 -2
2 8 -9 6 -15 15 -12 21 11 17 33 9 40 -13 7 -21 8 -20 12 10 5 37 -11 63 -36
61 -13 -1 -13 -2 2 -6z"/>
<path d="M6543 5113 c25 -6 21 -31 -5 -35 -30 -4 -32 -41 -3 -46 18 -3 19 -2
2 8 -9 6 -15 15 -12 21 11 17 33 9 40 -13 7 -21 8 -20 12 10 5 37 -11 63 -36
61 -13 -1 -13 -2 2 -6z"/>
<path d="M6773 5113 c25 -6 21 -31 -5 -35 -30 -4 -32 -41 -3 -46 18 -3 19 -2
2 8 -9 6 -15 15 -12 21 11 17 33 9 40 -13 7 -21 8 -20 12 10 5 37 -11 63 -36
61 -13 -1 -13 -2 2 -6z"/>
<path d="M6940 5106 c-28 -35 11 -93 48 -70 35 22 22 84 -18 84 -10 0 -23 -7
-30 -14z m55 -31 c0 -23 -5 -31 -21 -33 -24 -3 -38 20 -28 50 4 13 13 18 27
16 17 -2 22 -10 22 -33z"/>
<path d="M7037 5113 c-14 -13 -6 -30 19 -41 29 -14 22 -36 -9 -28 -14 3 -17 2
-10 -5 16 -16 47 -7 51 14 2 11 -6 20 -23 27 -29 11 -24 35 6 27 11 -3 17 -1
13 4 -6 10 -38 12 -47 2z"/>
<path d="M7290 5106 c-28 -35 11 -93 48 -70 35 22 22 84 -18 84 -10 0 -23 -7
-30 -14z m55 -31 c0 -23 -5 -31 -21 -33 -24 -3 -38 20 -28 50 4 13 13 18 27
16 17 -2 22 -10 22 -33z"/>
<path d="M7391 5070 l2 -45 6 40 c4 27 12 41 24 43 14 3 17 -4 17 -37 0 -23 5
-41 10 -41 13 0 13 46 0 71 -7 12 -20 18 -35 17 -23 -2 -25 -6 -24 -48z"/>
<path d="M7592 5108 c-27 -27 -7 -78 29 -78 10 0 20 4 23 8 2 4 -7 8 -21 7
-14 0 -28 6 -30 13 -3 8 6 12 26 12 31 0 36 6 25 34 -7 19 -35 21 -52 4z m46
-15 c2 -8 -6 -13 -22 -13 -19 0 -24 4 -19 15 6 18 34 16 41 -2z"/>
<path d="M7803 5113 c25 -6 21 -31 -5 -35 -30 -4 -32 -41 -3 -46 18 -3 19 -2
2 8 -9 6 -15 15 -12 21 11 17 33 9 40 -13 7 -21 8 -20 12 10 5 37 -11 63 -36
61 -13 -1 -13 -2 2 -6z"/>
<path d="M7872 5070 c1 -40 2 -41 5 -10 2 19 11 40 20 47 13 10 13 12 -6 10
-18 -1 -21 -7 -19 -47z"/>
<path d="M7963 5113 c25 -6 21 -31 -5 -35 -30 -4 -32 -41 -3 -46 18 -3 19 -2
2 8 -9 6 -15 15 -12 21 11 17 33 9 40 -13 7 -21 8 -20 12 10 5 37 -11 63 -36
61 -13 -1 -13 -2 2 -6z"/>
<path d="M8061 5055 c1 -33 4 -50 6 -38 3 14 9 20 19 16 20 -7 44 15 44 42 0
28 -19 45 -48 42 -20 -1 -22 -6 -21 -62z m54 20 c0 -23 -4 -30 -20 -30 -21 0
-31 25 -21 51 11 28 41 12 41 -21z"/>
<path d="M8183 5113 c25 -6 21 -31 -5 -35 -30 -4 -32 -41 -3 -46 18 -3 19 -2
2 8 -9 6 -15 15 -12 21 11 17 33 9 40 -13 7 -21 8 -20 12 10 5 37 -11 63 -36
61 -13 -1 -13 -2 2 -6z"/>
<path d="M8252 5070 c1 -40 2 -41 5 -10 2 19 11 40 20 47 13 10 13 12 -6 10
-18 -1 -21 -7 -19 -47z"/>
<path d="M8382 5108 c-27 -27 -7 -78 29 -78 10 0 20 4 23 8 2 4 -7 8 -21 7
-14 0 -28 6 -30 13 -3 8 6 12 26 12 31 0 36 6 25 34 -7 19 -35 21 -52 4z m46
-15 c2 -8 -6 -13 -22 -13 -19 0 -24 4 -19 15 6 18 34 16 41 -2z"/>
<path d="M8510 5106 c-28 -35 11 -93 48 -70 35 22 22 84 -18 84 -10 0 -23 -7
-30 -14z m55 -31 c0 -23 -5 -31 -21 -33 -24 -3 -38 20 -28 50 4 13 13 18 27
16 17 -2 22 -10 22 -33z"/>
<path d="M8653 5108 c-6 -7 -10 -33 -9 -58 1 -43 2 -45 31 -45 23 0 30 4 30
20 0 15 -8 21 -30 24 -29 4 -29 4 -6 10 16 4 27 17 32 34 6 24 4 27 -16 27
-12 0 -27 -6 -32 -12z m37 -18 c0 -11 -6 -20 -14 -20 -18 0 -29 16 -21 30 11
18 35 11 35 -10z m8 -62 c-7 -20 -48 -23 -48 -4 0 11 9 16 26 16 16 0 24 -5
22 -12z"/>
<path d="M8780 5106 c-28 -35 11 -93 48 -70 35 22 22 84 -18 84 -10 0 -23 -7
-30 -14z m55 -31 c0 -23 -5 -31 -21 -33 -24 -3 -38 20 -28 50 4 13 13 18 27
16 17 -2 22 -10 22 -33z"/>
<path d="M8877 5113 c-14 -13 -6 -30 19 -41 29 -14 22 -36 -9 -28 -14 3 -17 2
-10 -5 16 -16 47 -7 51 14 2 11 -6 20 -23 27 -29 11 -24 35 6 27 11 -3 17 -1
13 4 -6 10 -38 12 -47 2z"/>
<path d="M8957 5113 c-14 -13 -6 -30 19 -41 29 -14 22 -36 -9 -28 -14 3 -17 2
-10 -5 16 -16 47 -7 51 14 2 11 -6 20 -23 27 -29 11 -24 35 6 27 11 -3 17 -1
13 4 -6 10 -38 12 -47 2z"/>
<path d="M9063 5113 c25 -6 21 -31 -5 -35 -30 -4 -32 -41 -3 -46 18 -3 19 -2
2 8 -9 6 -15 15 -12 21 11 17 33 9 40 -13 7 -21 8 -20 12 10 5 37 -11 63 -36
61 -13 -1 -13 -2 2 -6z"/>
<path d="M9132 5070 c1 -40 2 -41 5 -10 2 19 11 40 20 47 13 10 13 12 -6 10
-18 -1 -21 -7 -19 -47z"/>
<path d="M9190 5075 c0 -25 5 -45 10 -45 6 0 10 20 10 45 0 25 -4 45 -10 45
-5 0 -10 -20 -10 -45z"/>
<path d="M9240 5106 c-28 -35 11 -93 48 -70 35 22 22 84 -18 84 -10 0 -23 -7
-30 -14z m55 -31 c0 -23 -5 -31 -21 -33 -24 -3 -38 20 -28 50 4 13 13 18 27
16 17 -2 22 -10 22 -33z"/>
<path d="M9472 5108 c-27 -27 -7 -78 29 -78 10 0 20 4 23 8 2 4 -7 8 -21 7
-14 0 -28 6 -30 13 -3 8 6 12 26 12 31 0 36 6 25 34 -7 19 -35 21 -52 4z m46
-15 c2 -8 -6 -13 -22 -13 -19 0 -24 4 -19 15 6 18 34 16 41 -2z"/>
<path d="M9723 5113 c25 -6 21 -31 -5 -35 -30 -4 -32 -41 -3 -46 18 -3 19 -2
2 8 -9 6 -15 15 -12 21 11 17 33 9 40 -13 7 -21 8 -20 12 10 5 37 -11 63 -36
61 -13 -1 -13 -2 2 -6z"/>
<path d="M9890 5106 c-28 -35 11 -93 48 -70 35 22 22 84 -18 84 -10 0 -23 -7
-30 -14z m55 -31 c0 -23 -5 -31 -21 -33 -24 -3 -38 20 -28 50 4 13 13 18 27
16 17 -2 22 -10 22 -33z"/>
<path d="M9987 5113 c-14 -13 -6 -30 19 -41 29 -14 22 -36 -9 -28 -14 3 -17 2
-10 -5 16 -16 47 -7 51 14 2 11 -6 20 -23 27 -29 11 -24 35 6 27 11 -3 17 -1
13 4 -6 10 -38 12 -47 2z"/>
<path d="M10151 5055 c1 -33 4 -50 6 -38 3 14 9 20 19 16 20 -7 44 15 44 42 0
28 -19 45 -48 42 -20 -1 -22 -6 -21 -62z m54 20 c0 -23 -4 -30 -20 -30 -21 0
-31 25 -21 51 11 28 41 12 41 -21z"/>
<path d="M10273 5113 c25 -6 21 -31 -5 -35 -30 -4 -32 -41 -3 -46 18 -3 19 -2
2 8 -9 6 -15 15 -12 21 11 17 33 9 40 -13 7 -21 8 -20 12 10 5 37 -11 63 -36
61 -13 -1 -13 -2 2 -6z"/>
<path d="M10342 5070 c1 -40 2 -41 5 -10 2 19 11 40 20 47 13 10 13 12 -6 10
-18 -1 -21 -7 -19 -47z"/>
<path d="M10472 5108 c-27 -27 -7 -78 29 -78 10 0 20 4 23 8 2 4 -7 8 -21 7
-14 0 -28 6 -30 13 -3 8 6 12 26 12 31 0 36 6 25 34 -7 19 -35 21 -52 4z m46
-15 c2 -8 -6 -13 -22 -13 -19 0 -24 4 -19 15 6 18 34 16 41 -2z"/>
<path d="M10580 5075 c0 -25 5 -45 10 -45 6 0 10 20 10 45 0 25 -4 45 -10 45
-5 0 -10 -20 -10 -45z"/>
<path d="M10631 5072 l2 -47 6 40 c4 27 12 41 24 43 14 3 17 -4 18 -40 l2 -43
6 40 c8 48 8 48 -29 51 -29 2 -30 1 -29 -44z"/>
<path d="M10718 5113 c7 -2 12 -22 12 -44 0 -21 5 -39 10 -39 6 0 10 15 10 33
0 33 -15 58 -34 56 -6 0 -5 -3 2 -6z"/>
<path d="M10781 5055 c1 -33 4 -50 6 -38 3 14 9 20 19 16 20 -7 44 15 44 42 0
28 -19 45 -48 42 -20 -1 -22 -6 -21 -62z m54 20 c0 -23 -4 -30 -20 -30 -21 0
-31 25 -21 51 11 28 41 12 41 -21z"/>
<path d="M10880 5106 c-28 -35 11 -93 48 -70 35 22 22 84 -18 84 -10 0 -23 -7
-30 -14z m55 -31 c0 -23 -5 -31 -21 -33 -24 -3 -38 20 -28 50 4 13 13 18 27
16 17 -2 22 -10 22 -33z"/>
<path d="M10982 5070 c1 -40 2 -41 5 -10 2 19 11 40 20 47 13 10 13 12 -6 10
-18 -1 -21 -7 -19 -47z"/>
<path d="M11133 5113 c25 -6 21 -31 -5 -35 -30 -4 -32 -41 -3 -46 18 -3 19 -2
2 8 -9 6 -15 15 -12 21 11 17 33 9 40 -13 7 -21 8 -20 12 10 5 37 -11 63 -36
61 -13 -1 -13 -2 2 -6z"/>
<path d="M11201 5070 l2 -45 6 40 c4 27 12 41 24 43 14 3 17 -4 17 -37 0 -23
5 -41 10 -41 13 0 13 46 0 71 -7 12 -20 18 -35 17 -23 -2 -25 -6 -24 -48z"/>
<path d="M11362 5108 c-27 -27 -7 -78 29 -78 10 0 20 4 23 8 2 4 -7 8 -21 7
-14 0 -28 6 -30 13 -3 8 6 12 26 12 31 0 36 6 25 34 -7 19 -35 21 -52 4z m46
-15 c2 -8 -6 -13 -22 -13 -19 0 -24 4 -19 15 6 18 34 16 41 -2z"/>
<path d="M7211 5043 c-1 -6 -4 -20 -7 -30 -5 -17 -5 -17 6 0 6 10 9 23 6 30
-3 9 -5 9 -5 0z"/>
<path d="M10071 5043 c-1 -6 -4 -20 -7 -30 -5 -17 -5 -17 6 0 6 10 9 23 6 30
-3 9 -5 9 -5 0z"/>
<path d="M0 4823 c0 -148 0 -148 18 -118 37 60 142 252 142 258 0 4 -36 7 -80
7 l-80 0 0 -147z"/>
<path d="M1986 4836 c-42 -73 -76 -138 -76 -144 0 -14 191 -352 199 -352 5 0
122 600 121 623 0 4 -38 7 -84 7 l-85 0 -75 -134z"/>
<path d="M3280 4915 c0 -18 -4 -23 -15 -19 -21 8 -45 -14 -45 -41 0 -28 19
-45 48 -42 20 1 22 6 22 64 0 35 -2 63 -5 63 -3 0 -5 -11 -5 -25z m-5 -60 c0
-33 -28 -47 -39 -19 -10 25 3 56 22 52 11 -2 17 -13 17 -33z"/>
<path d="M4440 4915 c0 -18 -4 -23 -15 -19 -21 8 -45 -14 -45 -41 0 -28 19
-45 48 -42 20 1 22 6 22 64 0 35 -2 63 -5 63 -3 0 -5 -11 -5 -25z m-5 -60 c0
-33 -28 -47 -39 -19 -10 25 3 56 22 52 11 -2 17 -13 17 -33z"/>
<path d="M4660 4915 c0 -18 -4 -23 -15 -19 -21 8 -45 -14 -45 -41 0 -28 19
-45 48 -42 20 1 22 6 22 64 0 35 -2 63 -5 63 -3 0 -5 -11 -5 -25z m-5 -60 c0
-33 -28 -47 -39 -19 -10 25 3 56 22 52 11 -2 17 -13 17 -33z"/>
<path d="M4850 4915 c0 -18 -4 -23 -15 -19 -21 8 -45 -14 -45 -41 0 -28 19
-45 48 -42 20 1 22 6 22 64 0 35 -2 63 -5 63 -3 0 -5 -11 -5 -25z m-5 -60 c0
-33 -28 -47 -39 -19 -10 25 3 56 22 52 11 -2 17 -13 17 -33z"/>
<path d="M5240 4930 c0 -5 5 -10 10 -10 6 0 10 5 10 10 0 6 -4 10 -10 10 -5 0
-10 -4 -10 -10z"/>
<path d="M5392 4920 c-4 -10 -5 -41 -2 -67 l5 -48 3 42 c2 29 8 43 20 46 16 4
15 5 0 6 -10 0 -18 5 -18 11 0 5 8 14 18 19 16 10 16 10 -1 11 -10 0 -21 -9
-25 -20z"/>
<path d="M5947 4933 c-4 -3 -7 -11 -7 -17 0 -6 5 -4 10 4 8 13 11 13 19 1 10
-15 31 -7 31 12 0 8 -3 8 -9 -2 -6 -9 -11 -10 -15 -2 -8 12 -19 14 -29 4z"/>
<path d="M6750 4930 c0 -5 5 -10 10 -10 6 0 10 5 10 10 0 6 -4 10 -10 10 -5 0
-10 -4 -10 -10z"/>
<path d="M6880 4930 c0 -5 5 -10 10 -10 6 0 10 5 10 10 0 6 -4 10 -10 10 -5 0
-10 -4 -10 -10z"/>
<path d="M7170 4930 c0 -5 5 -10 10 -10 6 0 10 5 10 10 0 6 -4 10 -10 10 -5 0
-10 -4 -10 -10z"/>
<path d="M7540 4915 c0 -18 -4 -23 -15 -19 -21 8 -45 -14 -45 -41 0 -28 19
-45 48 -42 20 1 22 6 22 64 0 35 -2 63 -5 63 -3 0 -5 -11 -5 -25z m-5 -60 c0
-33 -28 -47 -39 -19 -10 25 3 56 22 52 11 -2 17 -13 17 -33z"/>
<path d="M7950 4930 c0 -5 5 -10 10 -10 6 0 10 5 10 10 0 6 -4 10 -10 10 -5 0
-10 -4 -10 -10z"/>
<path d="M8660 4930 c0 -5 5 -10 10 -10 6 0 10 5 10 10 0 6 -4 10 -10 10 -5 0
-10 -4 -10 -10z"/>
<path d="M8790 4930 c0 -5 5 -10 10 -10 6 0 10 5 10 10 0 6 -4 10 -10 10 -5 0
-10 -4 -10 -10z"/>
<path d="M8890 4915 c0 -18 -4 -23 -15 -19 -21 8 -45 -14 -45 -41 0 -28 19
-45 48 -42 20 1 22 6 22 64 0 35 -2 63 -5 63 -3 0 -5 -11 -5 -25z m-5 -60 c0
-33 -28 -47 -39 -19 -10 25 3 56 22 52 11 -2 17 -13 17 -33z"/>
<path d="M9080 4915 c0 -18 -4 -23 -15 -19 -21 8 -45 -14 -45 -41 0 -28 19
-45 48 -42 20 1 22 6 22 64 0 35 -2 63 -5 63 -3 0 -5 -11 -5 -25z m-5 -60 c0
-33 -28 -47 -39 -19 -10 25 3 56 22 52 11 -2 17 -13 17 -33z"/>
<path d="M9580 4875 c0 -37 4 -65 10 -65 6 0 10 28 10 65 0 37 -4 65 -10 65
-6 0 -10 -28 -10 -65z"/>
<path d="M9620 4930 c0 -5 5 -10 10 -10 6 0 10 5 10 10 0 6 -4 10 -10 10 -5 0
-10 -4 -10 -10z"/>
<path d="M9720 4915 c0 -18 -4 -23 -15 -19 -21 8 -45 -14 -45 -41 0 -28 19
-45 48 -42 20 1 22 6 22 64 0 35 -2 63 -5 63 -3 0 -5 -11 -5 -25z m-5 -60 c0
-33 -28 -47 -39 -19 -10 25 3 56 22 52 11 -2 17 -13 17 -33z"/>
<path d="M9910 4915 c0 -18 -4 -23 -15 -19 -21 8 -45 -14 -45 -41 0 -28 19
-45 48 -42 20 1 22 6 22 64 0 35 -2 63 -5 63 -3 0 -5 -11 -5 -25z m-5 -60 c0
-33 -28 -47 -39 -19 -10 25 3 56 22 52 11 -2 17 -13 17 -33z"/>
<path d="M10840 4930 c0 -5 5 -10 10 -10 6 0 10 5 10 10 0 6 -4 10 -10 10 -5
0 -10 -4 -10 -10z"/>
<path d="M10970 4930 c0 -5 5 -10 10 -10 6 0 10 5 10 10 0 6 -4 10 -10 10 -5
0 -10 -4 -10 -10z"/>
<path d="M11070 4915 c0 -18 -4 -23 -15 -19 -21 8 -45 -14 -45 -41 0 -28 19
-45 48 -42 20 1 22 6 22 64 0 35 -2 63 -5 63 -3 0 -5 -11 -5 -25z m-5 -60 c0
-33 -28 -47 -39 -19 -10 25 3 56 22 52 11 -2 17 -13 17 -33z"/>
<path d="M11260 4915 c0 -18 -4 -23 -15 -19 -21 8 -45 -14 -45 -41 0 -28 19
-45 48 -42 20 1 22 6 22 64 0 35 -2 63 -5 63 -3 0 -5 -11 -5 -25z m-5 -60 c0
-33 -28 -47 -39 -19 -10 25 3 56 22 52 11 -2 17 -13 17 -33z"/>
<path d="M3032 4904 c-7 -8 -8 -14 -3 -14 5 0 11 -17 13 -37 2 -29 8 -38 23
-40 16 -1 16 -1 3 3 -13 4 -18 16 -18 40 0 25 4 34 18 35 13 0 14 2 2 6 -8 3
-17 9 -20 13 -3 4 -11 2 -18 -6z"/>
<path d="M8602 4904 c-7 -8 -8 -14 -3 -14 5 0 11 -17 13 -37 2 -29 8 -38 23
-40 16 -1 16 -1 3 3 -13 4 -18 16 -18 40 0 25 4 34 18 35 13 0 14 2 2 6 -8 3
-17 9 -20 13 -3 4 -11 2 -18 -6z"/>
<path d="M10212 4904 c-7 -8 -8 -14 -3 -14 5 0 11 -17 13 -37 2 -29 8 -38 23
-40 16 -1 16 -1 3 3 -13 4 -18 16 -18 40 0 25 4 34 18 35 13 0 14 2 2 6 -8 3
-17 9 -20 13 -3 4 -11 2 -18 -6z"/>
<path d="M10782 4904 c-7 -8 -8 -14 -3 -14 5 0 11 -17 13 -37 2 -29 8 -38 23
-40 16 -1 16 -1 3 3 -13 4 -18 16 -18 40 0 25 4 34 18 35 13 0 14 2 2 6 -8 3
-17 9 -20 13 -3 4 -11 2 -18 -6z"/>
<path d="M2391 4850 l2 -45 6 40 c4 27 12 41 24 43 14 3 17 -4 17 -37 0 -23 5
-41 10 -41 13 0 13 46 0 71 -7 12 -20 18 -35 17 -23 -2 -25 -6 -24 -48z"/>
<path d="M2490 4886 c-28 -35 11 -93 48 -70 35 22 22 84 -18 84 -10 0 -23 -7
-30 -14z m55 -31 c0 -23 -5 -31 -21 -33 -24 -3 -38 20 -28 50 4 13 13 18 27
16 17 -2 22 -10 22 -33z"/>
<path d="M2631 4835 c1 -33 4 -50 6 -38 3 14 9 20 19 16 20 -7 44 15 44 42 0
28 -19 45 -48 42 -20 -1 -22 -6 -21 -62z m54 20 c0 -23 -4 -30 -20 -30 -21 0
-31 25 -21 51 11 28 41 12 41 -21z"/>
<path d="M2732 4850 c1 -40 2 -41 5 -10 2 19 11 40 20 47 13 10 13 12 -6 10
-18 -1 -21 -7 -19 -47z"/>
<path d="M2800 4886 c-28 -35 11 -93 48 -70 35 22 22 84 -18 84 -10 0 -23 -7
-30 -14z m55 -31 c0 -23 -5 -31 -21 -33 -24 -3 -38 20 -28 50 4 13 13 18 27
16 17 -2 22 -10 22 -33z"/>
<path d="M2900 4846 c0 -34 -5 -56 -12 -59 -8 -3 -6 -6 5 -6 14 -1 17 8 17 59
0 33 -2 60 -5 60 -3 0 -5 -24 -5 -54z"/>
<path d="M2952 4888 c-27 -27 -7 -78 29 -78 10 0 20 4 23 8 2 4 -7 8 -21 7
-14 0 -28 6 -30 13 -3 8 6 12 26 12 31 0 36 6 25 34 -7 19 -35 21 -52 4z m46
-15 c2 -8 -6 -13 -22 -13 -19 0 -24 4 -19 15 6 18 34 16 41 -2z"/>
<path d="M3100 4886 c-28 -35 11 -93 48 -70 35 22 22 84 -18 84 -10 0 -23 -7
-30 -14z m55 -31 c0 -23 -5 -31 -21 -33 -24 -3 -38 20 -28 50 4 13 13 18 27
16 17 -2 22 -10 22 -33z"/>
<path d="M3332 4888 c-27 -27 -7 -78 29 -78 10 0 20 4 23 8 2 4 -7 8 -21 7
-14 0 -28 6 -30 13 -3 8 6 12 26 12 31 0 36 6 25 34 -7 19 -35 21 -52 4z m46
-15 c2 -8 -6 -13 -22 -13 -19 0 -24 4 -19 15 6 18 34 16 41 -2z"/>
<path d="M3463 4888 c-6 -7 -10 -33 -9 -58 1 -43 2 -45 31 -45 23 0 30 4 30
20 0 15 -8 21 -30 24 -29 4 -29 4 -6 10 16 4 27 17 32 34 6 24 4 27 -16 27
-12 0 -27 -6 -32 -12z m37 -18 c0 -21 -24 -28 -35 -10 -8 14 3 30 21 30 8 0
14 -9 14 -20z m8 -62 c-7 -20 -48 -23 -48 -4 0 11 9 16 26 16 16 0 24 -5 22
-12z"/>
<path d="M3550 4886 c-28 -35 11 -93 48 -70 35 22 22 84 -18 84 -10 0 -23 -7
-30 -14z m55 -31 c0 -23 -5 -31 -21 -33 -24 -3 -38 20 -28 50 4 13 13 18 27
16 17 -2 22 -10 22 -33z"/>
<path d="M3641 4896 c-2 -19 23 -86 31 -86 9 0 21 26 32 70 3 14 -3 7 -13 -15
-16 -35 -20 -37 -26 -20 -13 37 -24 60 -24 51z"/>
<path d="M3742 4888 c-27 -27 -7 -78 29 -78 10 0 20 4 23 8 2 4 -7 8 -21 7
-14 0 -28 6 -30 13 -3 8 6 12 26 12 31 0 36 6 25 34 -7 19 -35 21 -52 4z m46
-15 c2 -8 -6 -13 -22 -13 -19 0 -24 4 -19 15 6 18 34 16 41 -2z"/>
<path d="M3832 4850 c1 -40 2 -41 5 -10 2 19 11 40 20 47 13 10 13 12 -6 10
-18 -1 -21 -7 -19 -47z"/>
<path d="M3901 4850 l2 -45 6 40 c4 27 12 41 24 43 14 3 17 -4 17 -37 0 -23 5
-41 10 -41 13 0 13 46 0 71 -7 12 -20 18 -35 17 -23 -2 -25 -6 -24 -48z"/>
<path d="M4023 4893 c25 -6 21 -31 -5 -35 -30 -4 -32 -41 -3 -46 18 -3 19 -2
2 8 -9 6 -15 15 -12 21 11 17 33 9 40 -13 7 -21 8 -20 12 10 5 37 -11 63 -36
61 -13 -1 -13 -2 2 -6z"/>
<path d="M4091 4850 l2 -45 6 40 c4 27 12 41 24 43 14 3 17 -4 17 -37 0 -23 5
-41 10 -41 13 0 13 46 0 71 -7 12 -20 18 -35 17 -23 -2 -25 -6 -24 -48z"/>
<path d="M4192 4888 c-18 -18 -14 -53 8 -73 16 -14 18 -21 8 -28 -10 -7 -10
-8 0 -5 8 2 13 7 12 12 -1 5 4 13 12 17 9 6 7 9 -9 9 -41 0 -41 65 0 73 21 4
21 4 2 6 -12 0 -26 -4 -33 -11z"/>
<path d="M4293 4893 c25 -6 21 -31 -5 -35 -30 -4 -32 -41 -3 -46 18 -3 19 -2
2 8 -9 6 -15 15 -12 21 11 17 33 9 40 -13 7 -21 8 -20 12 10 5 37 -11 63 -36
61 -13 -1 -13 -2 2 -6z"/>
<path d="M4492 4888 c-27 -27 -7 -78 29 -78 10 0 20 4 23 8 2 4 -7 8 -21 7
-14 0 -28 6 -30 13 -3 8 6 12 26 12 31 0 36 6 25 34 -7 19 -35 21 -52 4z m46
-15 c2 -8 -6 -13 -22 -13 -19 0 -24 4 -19 15 6 18 34 16 41 -2z"/>
<path d="M4733 4893 c25 -6 21 -31 -5 -35 -30 -4 -32 -41 -3 -46 18 -3 19 -2
2 8 -9 6 -15 15 -12 21 11 17 33 9 40 -13 7 -21 8 -20 12 10 5 37 -11 63 -36
61 -13 -1 -13 -2 2 -6z"/>
<path d="M4900 4886 c-28 -35 11 -93 48 -70 35 22 22 84 -18 84 -10 0 -23 -7
-30 -14z m55 -31 c0 -23 -5 -31 -21 -33 -24 -3 -38 20 -28 50 4 13 13 18 27
16 17 -2 22 -10 22 -33z"/>
<path d="M4997 4893 c-14 -13 -6 -30 19 -41 29 -14 22 -36 -9 -28 -14 3 -17 2
-10 -5 16 -16 47 -7 51 14 2 11 -6 20 -23 27 -29 11 -24 35 6 27 11 -3 17 -1
13 4 -6 10 -38 12 -47 2z"/>
<path d="M5112 4888 c-27 -27 -7 -78 29 -78 10 0 20 4 23 8 2 4 -7 8 -21 7
-14 0 -28 6 -30 13 -3 8 6 12 26 12 31 0 36 6 25 34 -7 19 -35 21 -52 4z m46
-15 c2 -8 -6 -13 -22 -13 -19 0 -24 4 -19 15 6 18 34 16 41 -2z"/>
<path d="M5240 4855 c0 -25 5 -45 10 -45 6 0 10 20 10 45 0 25 -4 45 -10 45
-5 0 -10 -20 -10 -45z"/>
<path d="M5291 4850 l2 -45 6 40 c4 27 12 41 24 43 14 3 17 -4 17 -37 0 -23 5
-41 10 -41 13 0 13 46 0 71 -7 12 -20 18 -35 17 -23 -2 -25 -6 -24 -48z"/>
<path d="M5450 4886 c-28 -35 11 -93 48 -70 35 22 22 84 -18 84 -10 0 -23 -7
-30 -14z m55 -31 c0 -23 -5 -31 -21 -33 -24 -3 -38 20 -28 50 4 13 13 18 27
16 17 -2 22 -10 22 -33z"/>
<path d="M5552 4850 c1 -40 2 -41 5 -10 2 19 11 40 20 47 13 10 13 12 -6 10
-18 -1 -21 -7 -19 -47z"/>
<path d="M5621 4852 l2 -47 6 40 c4 27 12 41 24 43 14 3 17 -4 18 -40 l2 -43
6 40 c8 48 8 48 -29 51 -29 2 -30 1 -29 -44z"/>
<path d="M5708 4893 c7 -2 12 -22 12 -44 0 -21 5 -39 10 -39 6 0 10 15 10 33
0 33 -15 58 -34 56 -6 0 -5 -3 2 -6z"/>
<path d="M5793 4893 c25 -6 21 -31 -5 -35 -30 -4 -32 -41 -3 -46 18 -3 19 -2
2 8 -9 6 -15 15 -12 21 11 17 33 9 40 -13 7 -21 8 -20 12 10 5 37 -11 63 -36
61 -13 -1 -13 -2 2 -6z"/>
<path d="M5862 4888 c-18 -18 -14 -53 8 -73 16 -14 18 -21 8 -28 -10 -7 -10
-8 0 -5 8 2 13 7 12 12 -1 5 4 13 12 17 9 6 7 9 -9 9 -41 0 -41 65 0 73 21 4
21 4 2 6 -12 0 -26 -4 -33 -11z"/>
<path d="M5940 4886 c-28 -35 11 -93 48 -70 35 22 22 84 -18 84 -10 0 -23 -7
-30 -14z m55 -31 c0 -23 -5 -31 -21 -33 -24 -3 -38 20 -28 50 4 13 13 18 27
16 17 -2 22 -10 22 -33z"/>
<path d="M6042 4888 c-27 -27 -7 -78 29 -78 10 0 20 4 23 8 2 4 -7 8 -21 7
-14 0 -28 6 -30 13 -3 8 6 12 26 12 31 0 36 6 25 34 -7 19 -35 21 -52 4z m46
-15 c2 -8 -6 -13 -22 -13 -19 0 -24 4 -19 15 6 18 34 16 41 -2z"/>
<path d="M6127 4893 c-14 -13 -6 -30 19 -41 29 -14 22 -36 -9 -28 -14 3 -17 2
-10 -5 16 -16 47 -7 51 14 2 11 -6 20 -23 27 -29 11 -24 35 6 27 11 -3 17 -1
13 4 -6 10 -38 12 -47 2z"/>
<path d="M6243 4888 c-6 -7 -10 -33 -9 -58 1 -43 2 -45 31 -45 23 0 30 4 30
20 0 15 -8 21 -30 24 -29 4 -29 4 -6 10 16 4 27 17 32 34 6 24 4 27 -16 27
-12 0 -27 -6 -32 -12z m37 -18 c0 -11 -6 -20 -14 -20 -18 0 -29 16 -21 30 11
18 35 11 35 -10z m8 -62 c-7 -20 -48 -23 -48 -4 0 11 9 16 26 16 16 0 24 -5
22 -12z"/>
<path d="M6332 4888 c-27 -27 -7 -78 29 -78 10 0 20 4 23 8 2 4 -7 8 -21 7
-14 0 -28 6 -30 13 -3 8 6 12 26 12 31 0 36 6 25 34 -7 19 -35 21 -52 4z m46
-15 c2 -8 -6 -13 -22 -13 -19 0 -24 4 -19 15 6 18 34 16 41 -2z"/>
<path d="M6422 4850 c1 -40 2 -41 5 -10 2 19 11 40 20 47 13 10 13 12 -6 10
-18 -1 -21 -7 -19 -47z"/>
<path d="M6492 4888 c-27 -27 -7 -78 29 -78 10 0 20 4 23 8 2 4 -7 8 -21 7
-14 0 -28 6 -30 13 -3 8 6 12 26 12 31 0 36 6 25 34 -7 19 -35 21 -52 4z m46
-15 c2 -8 -6 -13 -22 -13 -19 0 -24 4 -19 15 6 18 34 16 41 -2z"/>
<path d="M6581 4850 l2 -45 6 40 c4 27 12 41 24 43 14 3 17 -4 17 -37 0 -23 5
-41 10 -41 13 0 13 46 0 71 -7 12 -20 18 -35 17 -23 -2 -25 -6 -24 -48z"/>
<path d="M6682 4888 c-29 -29 -3 -85 35 -75 15 4 14 5 -4 6 -41 2 -41 66 0 74
21 4 21 4 2 6 -12 0 -26 -4 -33 -11z"/>
<path d="M6750 4855 c0 -25 5 -45 10 -45 6 0 10 20 10 45 0 25 -4 45 -10 45
-5 0 -10 -20 -10 -45z"/>
<path d="M6823 4893 c25 -6 21 -31 -5 -35 -30 -4 -32 -41 -3 -46 18 -3 19 -2
2 8 -9 6 -15 15 -12 21 11 17 33 9 40 -13 7 -21 8 -20 12 10 5 37 -11 63 -36
61 -13 -1 -13 -2 2 -6z"/>
<path d="M6880 4855 c0 -25 5 -45 10 -45 6 0 10 20 10 45 0 25 -4 45 -10 45
-5 0 -10 -20 -10 -45z"/>
<path d="M6927 4893 c-14 -13 -6 -30 19 -41 29 -14 22 -36 -9 -28 -14 3 -17 2
-10 -5 16 -16 47 -7 51 14 2 11 -6 20 -23 27 -29 11 -24 35 6 27 11 -3 17 -1
13 4 -6 10 -38 12 -47 2z"/>
<path d="M7081 4896 c-2 -19 23 -86 31 -86 9 0 21 26 32 70 3 14 -3 7 -13 -15
-16 -35 -20 -37 -26 -20 -13 37 -24 60 -24 51z"/>
<path d="M7170 4855 c0 -25 5 -45 10 -45 6 0 10 20 10 45 0 25 -4 45 -10 45
-5 0 -10 -20 -10 -45z"/>
<path d="M7217 4893 c-14 -13 -6 -30 19 -41 29 -14 22 -36 -9 -28 -14 3 -17 2
-10 -5 16 -16 47 -7 51 14 2 11 -6 20 -23 27 -29 11 -24 35 6 27 11 -3 17 -1
13 4 -6 10 -38 12 -47 2z"/>
<path d="M7323 4893 c25 -6 21 -31 -5 -35 -30 -4 -32 -41 -3 -46 18 -3 19 -2
2 8 -9 6 -15 15 -12 21 11 17 33 9 40 -13 7 -21 8 -20 12 10 5 37 -11 63 -36
61 -13 -1 -13 -2 2 -6z"/>
<path d="M7391 4850 l2 -45 6 40 c4 27 12 41 24 43 14 3 17 -4 17 -37 0 -23 5
-41 10 -41 13 0 13 46 0 71 -7 12 -20 18 -35 17 -23 -2 -25 -6 -24 -48z"/>
<path d="M7590 4886 c-28 -35 11 -93 48 -70 35 22 22 84 -18 84 -10 0 -23 -7
-30 -14z m55 -31 c0 -23 -5 -31 -21 -33 -24 -3 -38 20 -28 50 4 13 13 18 27
16 17 -2 22 -10 22 -33z"/>
<path d="M7721 4852 l2 -47 6 40 c4 27 12 41 24 43 14 3 17 -4 18 -40 l2 -43
6 40 c8 48 8 48 -29 51 -29 2 -30 1 -29 -44z"/>
<path d="M7808 4893 c7 -2 12 -22 12 -44 0 -21 5 -39 10 -39 6 0 10 15 10 33
0 33 -15 58 -34 56 -6 0 -5 -3 2 -6z"/>
<path d="M7893 4893 c25 -6 21 -31 -5 -35 -30 -4 -32 -41 -3 -46 18 -3 19 -2
2 8 -9 6 -15 15 -12 21 11 17 33 9 40 -13 7 -21 8 -20 12 10 5 37 -11 63 -36
61 -13 -1 -13 -2 2 -6z"/>
<path d="M7950 4855 c0 -25 5 -45 10 -45 6 0 10 20 10 45 0 25 -4 45 -10 45
-5 0 -10 -20 -10 -45z"/>
<path d="M8000 4886 c-28 -35 11 -93 48 -70 35 22 22 84 -18 84 -10 0 -23 -7
-30 -14z m55 -31 c0 -23 -5 -31 -21 -33 -24 -3 -38 20 -28 50 4 13 13 18 27
16 17 -2 22 -10 22 -33z"/>
<path d="M8102 4850 c1 -40 2 -41 5 -10 2 19 11 40 20 47 13 10 13 12 -6 10
-18 -1 -21 -7 -19 -47z"/>
<path d="M8223 4893 c25 -6 21 -31 -5 -35 -30 -4 -32 -41 -3 -46 18 -3 19 -2
2 8 -9 6 -15 15 -12 21 11 17 33 9 40 -13 7 -21 8 -20 12 10 5 37 -11 63 -36
61 -13 -1 -13 -2 2 -6z"/>
<path d="M8287 4893 c-14 -13 -6 -30 19 -41 29 -14 22 -36 -9 -28 -14 3 -17 2
-10 -5 16 -16 47 -7 51 14 2 11 -6 20 -23 27 -29 11 -24 35 6 27 11 -3 17 -1
13 4 -6 10 -38 12 -47 2z"/>
<path d="M8367 4893 c-14 -13 -6 -30 19 -41 29 -14 22 -36 -9 -28 -14 3 -17 2
-10 -5 16 -16 47 -7 51 14 2 11 -6 20 -23 27 -29 11 -24 35 6 27 11 -3 17 -1
13 4 -6 10 -38 12 -47 2z"/>
<path d="M8452 4888 c-27 -27 -7 -78 29 -78 10 0 20 4 23 8 2 4 -7 8 -21 7
-14 0 -28 6 -30 13 -3 8 6 12 26 12 31 0 36 6 25 34 -7 19 -35 21 -52 4z m46
-15 c2 -8 -6 -13 -22 -13 -19 0 -24 4 -19 15 6 18 34 16 41 -2z"/>
<path d="M8542 4850 c1 -40 2 -41 5 -10 2 19 11 40 20 47 13 10 13 12 -6 10
-18 -1 -21 -7 -19 -47z"/>
<path d="M8660 4855 c0 -25 5 -45 10 -45 6 0 10 20 10 45 0 25 -4 45 -10 45
-5 0 -10 -20 -10 -45z"/>
<path d="M8701 4896 c-2 -19 23 -86 31 -86 9 0 21 26 32 70 3 14 -3 7 -13 -15
-16 -35 -20 -37 -26 -20 -13 37 -24 60 -24 51z"/>
<path d="M8790 4855 c0 -25 5 -45 10 -45 6 0 10 20 10 45 0 25 -4 45 -10 45
-5 0 -10 -20 -10 -45z"/>
<path d="M8963 4893 c25 -6 21 -31 -5 -35 -30 -4 -32 -41 -3 -46 18 -3 19 -2
2 8 -9 6 -15 15 -12 21 11 17 33 9 40 -13 7 -21 8 -20 12 10 5 37 -11 63 -36
61 -13 -1 -13 -2 2 -6z"/>
<path d="M9132 4888 c-27 -27 -7 -78 29 -78 10 0 20 4 23 8 2 4 -7 8 -21 7
-14 0 -28 6 -30 13 -3 8 6 12 26 12 31 0 36 6 25 34 -7 19 -35 21 -52 4z m46
-15 c2 -8 -6 -13 -22 -13 -19 0 -24 4 -19 15 6 18 34 16 41 -2z"/>
<path d="M9302 4888 c-28 -28 -1 -88 32 -75 10 4 16 -2 19 -16 2 -12 5 5 6 38
1 57 -1 61 -22 63 -13 1 -29 -4 -35 -10z m43 -33 c0 -33 -28 -47 -39 -19 -10
25 3 56 22 52 11 -2 17 -13 17 -33z"/>
<path d="M9404 4858 c1 -40 3 -43 29 -44 26 -1 27 1 26 45 l-2 46 -6 -40 c-9
-57 -38 -61 -44 -6 l-4 41 1 -42z"/>
<path d="M9523 4893 c25 -6 21 -31 -5 -35 -30 -4 -32 -41 -3 -46 18 -3 19 -2
2 8 -9 6 -15 15 -12 21 11 17 33 9 40 -13 7 -21 8 -20 12 10 5 37 -11 63 -36
61 -13 -1 -13 -2 2 -6z"/>
<path d="M9620 4855 c0 -25 5 -45 10 -45 6 0 10 20 10 45 0 25 -4 45 -10 45
-5 0 -10 -20 -10 -45z"/>
<path d="M9793 4893 c25 -6 21 -31 -5 -35 -30 -4 -32 -41 -3 -46 18 -3 19 -2
2 8 -9 6 -15 15 -12 21 11 17 33 9 40 -13 7 -21 8 -20 12 10 5 37 -11 63 -36
61 -13 -1 -13 -2 2 -6z"/>
<path d="M9962 4888 c-27 -27 -7 -78 29 -78 10 0 20 4 23 8 2 4 -7 8 -21 7
-14 0 -28 6 -30 13 -3 8 6 12 26 12 31 0 36 6 25 34 -7 19 -35 21 -52 4z m46
-15 c2 -8 -6 -13 -22 -13 -19 0 -24 4 -19 15 6 18 34 16 41 -2z"/>
<path d="M10092 4888 c-27 -27 -7 -78 29 -78 10 0 20 4 23 8 2 4 -7 8 -21 7
-14 0 -28 6 -30 13 -3 8 6 12 26 12 31 0 36 6 25 34 -7 19 -35 21 -52 4z m46
-15 c2 -8 -6 -13 -22 -13 -19 0 -24 4 -19 15 6 18 34 16 41 -2z"/>
<path d="M10282 4888 c-27 -27 -7 -78 29 -78 10 0 20 4 23 8 2 4 -7 8 -21 7
-14 0 -28 6 -30 13 -3 8 6 12 26 12 31 0 36 6 25 34 -7 19 -35 21 -52 4z m46
-15 c2 -8 -6 -13 -22 -13 -19 0 -24 4 -19 15 6 18 34 16 41 -2z"/>
<path d="M10371 4852 l2 -47 6 40 c4 27 12 41 24 43 14 3 17 -4 18 -40 l2 -43
6 40 c8 48 8 48 -29 51 -29 2 -30 1 -29 -44z"/>
<path d="M10458 4893 c7 -2 12 -22 12 -44 0 -21 5 -39 10 -39 6 0 10 15 10 33
0 33 -15 58 -34 56 -6 0 -5 -3 2 -6z"/>
<path d="M10521 4835 c1 -33 4 -50 6 -38 3 14 9 20 19 16 20 -7 44 15 44 42 0
28 -19 45 -48 42 -20 -1 -22 -6 -21 -62z m54 20 c0 -23 -4 -30 -20 -30 -21 0
-31 25 -21 51 11 28 41 12 41 -21z"/>
<path d="M10622 4888 c-27 -27 -7 -78 29 -78 10 0 20 4 23 8 2 4 -7 8 -21 7
-14 0 -28 6 -30 13 -3 8 6 12 26 12 31 0 36 6 25 34 -7 19 -35 21 -52 4z m46
-15 c2 -8 -6 -13 -22 -13 -19 0 -24 4 -19 15 6 18 34 16 41 -2z"/>
<path d="M10707 4893 c-14 -13 -6 -30 19 -41 29 -14 22 -36 -9 -28 -14 3 -17
2 -10 -5 16 -16 47 -7 51 14 2 11 -6 20 -23 27 -29 11 -24 35 6 27 11 -3 17
-1 13 4 -6 10 -38 12 -47 2z"/>
<path d="M10840 4855 c0 -25 5 -45 10 -45 6 0 10 20 10 45 0 25 -4 45 -10 45
-5 0 -10 -20 -10 -45z"/>
<path d="M10881 4896 c-2 -19 23 -86 31 -86 9 0 21 26 32 70 3 14 -3 7 -13
-15 -16 -35 -20 -37 -26 -20 -13 37 -24 60 -24 51z"/>
<path d="M10970 4855 c0 -25 5 -45 10 -45 6 0 10 20 10 45 0 25 -4 45 -10 45
-5 0 -10 -20 -10 -45z"/>
<path d="M11143 4893 c25 -6 21 -31 -5 -35 -30 -4 -32 -41 -3 -46 18 -3 19 -2
2 8 -9 6 -15 15 -12 21 11 17 33 9 40 -13 7 -21 8 -20 12 10 5 37 -11 63 -36
61 -13 -1 -13 -2 2 -6z"/>
<path d="M11312 4888 c-27 -27 -7 -78 29 -78 10 0 20 4 23 8 2 4 -7 8 -21 7
-14 0 -28 6 -30 13 -3 8 6 12 26 12 31 0 36 6 25 34 -7 19 -35 21 -52 4z m46
-15 c2 -8 -6 -13 -22 -13 -19 0 -24 4 -19 15 6 18 34 16 41 -2z"/>
<path d="M7011 4823 c-1 -6 -4 -20 -7 -30 -5 -17 -5 -17 6 0 6 10 9 23 6 30
-3 9 -5 9 -5 0z"/>
<path d="M9221 4823 c-1 -6 -4 -20 -7 -30 -5 -17 -5 -17 6 0 6 10 9 23 6 30
-3 9 -5 9 -5 0z"/>
<path d="M4440 4693 c0 -14 2 -15 9 -4 6 9 11 10 15 2 4 -6 12 -11 19 -11 12
0 -23 29 -35 30 -5 0 -8 -8 -8 -17z"/>
<path d="M5040 4700 c0 -5 5 -10 10 -10 6 0 10 5 10 10 0 6 -4 10 -10 10 -5 0
-10 -4 -10 -10z"/>
<path d="M5280 4645 c0 -37 4 -65 10 -65 6 0 10 28 10 65 0 37 -4 65 -10 65
-6 0 -10 -28 -10 -65z"/>
<path d="M5500 4693 c0 -14 2 -15 9 -4 6 9 11 10 15 2 4 -6 12 -11 19 -11 12
0 -23 29 -35 30 -5 0 -8 -8 -8 -17z"/>
<path d="M5990 4700 c0 -5 5 -10 10 -10 6 0 10 5 10 10 0 6 -4 10 -10 10 -5 0
-10 -4 -10 -10z"/>
<path d="M6030 4645 c0 -37 4 -65 10 -65 6 0 10 28 10 65 0 37 -4 65 -10 65
-6 0 -10 -28 -10 -65z"/>
<path d="M6070 4700 c0 -5 5 -10 10 -10 6 0 10 5 10 10 0 6 -4 10 -10 10 -5 0
-10 -4 -10 -10z"/>
<path d="M6370 4693 c0 -14 2 -15 9 -4 6 9 11 10 15 2 4 -6 12 -11 19 -11 12
0 -23 29 -35 30 -5 0 -8 -8 -8 -17z"/>
<path d="M6650 4685 c0 -18 -4 -23 -15 -19 -21 8 -45 -14 -45 -41 0 -28 19
-45 48 -42 20 1 22 6 22 64 0 35 -2 63 -5 63 -3 0 -5 -11 -5 -25z m-5 -60 c0
-33 -28 -47 -39 -19 -10 25 3 56 22 52 11 -2 17 -13 17 -33z"/>
<path d="M6890 4685 c0 -18 -4 -23 -15 -19 -21 8 -45 -14 -45 -41 0 -28 19
-45 48 -42 20 1 22 6 22 64 0 35 -2 63 -5 63 -3 0 -5 -11 -5 -25z m-5 -60 c0
-33 -28 -47 -39 -19 -10 25 3 56 22 52 11 -2 17 -13 17 -33z"/>
<path d="M7080 4685 c0 -18 -4 -23 -15 -19 -21 8 -45 -14 -45 -41 0 -28 19
-45 48 -42 20 1 22 6 22 64 0 35 -2 63 -5 63 -3 0 -5 -11 -5 -25z m-5 -60 c0
-33 -28 -47 -39 -19 -10 25 3 56 22 52 11 -2 17 -13 17 -33z"/>
<path d="M7460 4700 c0 -5 5 -10 10 -10 6 0 10 5 10 10 0 6 -4 10 -10 10 -5 0
-10 -4 -10 -10z"/>
<path d="M7612 4690 c-4 -10 -5 -41 -2 -67 l5 -48 3 42 c2 29 8 43 20 46 16 4
15 5 0 6 -10 0 -18 5 -18 11 0 5 8 14 18 19 16 10 16 10 -1 11 -10 0 -21 -9
-25 -20z"/>
<path d="M8167 4703 c-4 -3 -7 -11 -7 -17 0 -6 5 -4 10 4 8 13 11 13 19 1 10
-15 31 -7 31 12 0 8 -3 8 -9 -2 -6 -9 -11 -10 -15 -2 -8 12 -19 14 -29 4z"/>
<path d="M3722 4674 c-7 -8 -8 -14 -3 -14 5 0 11 -17 13 -37 2 -29 8 -38 23
-40 16 -1 16 -1 3 3 -13 4 -18 16 -18 40 0 25 4 34 18 35 13 0 14 2 2 6 -8 3
-17 9 -20 13 -3 4 -11 2 -18 -6z"/>
<path d="M4132 4674 c-7 -8 -8 -14 -3 -14 5 0 11 -17 13 -37 2 -29 8 -38 23
-40 16 -1 16 -1 3 3 -13 4 -18 16 -18 40 0 25 4 34 18 35 13 0 14 2 2 6 -8 3
-17 9 -20 13 -3 4 -11 2 -18 -6z"/>
<path d="M5932 4674 c-7 -8 -8 -14 -3 -14 5 0 11 -17 13 -37 2 -29 8 -38 23
-40 16 -1 16 -1 3 3 -13 4 -18 16 -18 40 0 25 4 34 18 35 13 0 14 2 2 6 -8 3
-17 9 -20 13 -3 4 -11 2 -18 -6z"/>
<path d="M2391 4620 l2 -45 6 40 c4 27 12 41 24 43 14 3 17 -4 17 -37 0 -23 5
-41 10 -41 13 0 13 46 0 71 -7 12 -20 18 -35 17 -23 -2 -25 -6 -24 -48z"/>
<path d="M2490 4656 c-28 -35 11 -93 48 -70 35 22 22 84 -18 84 -10 0 -23 -7
-30 -14z m55 -31 c0 -23 -5 -31 -21 -33 -24 -3 -38 20 -28 50 4 13 13 18 27
16 17 -2 22 -10 22 -33z"/>
<path d="M2653 4663 c25 -6 21 -31 -5 -35 -30 -4 -32 -41 -3 -46 18 -3 19 -2
2 8 -9 6 -15 15 -12 21 11 17 33 9 40 -13 7 -21 8 -20 12 10 5 37 -11 63 -36
61 -13 -1 -13 -2 2 -6z"/>
<path d="M2722 4620 c1 -40 2 -41 5 -10 2 19 11 40 20 47 13 10 13 12 -6 10
-18 -1 -21 -7 -19 -47z"/>
<path d="M2791 4622 l2 -47 6 40 c4 27 12 41 24 43 14 3 17 -4 18 -40 l2 -43
6 40 c8 48 8 48 -29 51 -29 2 -30 1 -29 -44z"/>
<path d="M2878 4663 c7 -2 12 -22 12 -44 0 -21 5 -39 10 -39 6 0 10 15 10 33
0 33 -15 58 -34 56 -6 0 -5 -3 2 -6z"/>
<path d="M2963 4663 c25 -6 21 -31 -5 -35 -30 -4 -32 -41 -3 -46 18 -3 19 -2
2 8 -9 6 -15 15 -12 21 11 17 33 9 40 -13 7 -21 8 -20 12 10 5 37 -11 63 -36
61 -13 -1 -13 -2 2 -6z"/>
<path d="M3037 4662 l23 -7 -20 -33 c-26 -42 -26 -42 13 -41 23 1 26 3 10 6
-27 5 -28 12 -8 39 22 29 18 44 -12 43 -26 -1 -26 -2 -6 -7z"/>
<path d="M3112 4658 c-27 -27 -7 -78 29 -78 10 0 20 4 23 8 2 4 -7 8 -21 7
-14 0 -28 6 -30 13 -3 8 6 12 26 12 31 0 36 6 25 34 -7 19 -35 21 -52 4z m46
-15 c2 -8 -6 -13 -22 -13 -19 0 -24 4 -19 15 6 18 34 16 41 -2z"/>
<path d="M3201 4620 l2 -45 6 40 c4 27 12 41 24 43 14 3 17 -4 17 -37 0 -23 5
-41 10 -41 13 0 13 46 0 71 -7 12 -20 18 -35 17 -23 -2 -25 -6 -24 -48z"/>
<path d="M3323 4663 c25 -6 21 -31 -5 -35 -30 -4 -32 -41 -3 -46 18 -3 19 -2
2 8 -9 6 -15 15 -12 21 11 17 33 9 40 -13 7 -21 8 -20 12 10 5 37 -11 63 -36
61 -13 -1 -13 -2 2 -6z"/>
<path d="M3391 4622 l2 -47 6 40 c4 27 12 41 24 43 14 3 17 -4 18 -40 l2 -43
6 40 c8 48 8 48 -29 51 -29 2 -30 1 -29 -44z"/>
<path d="M3478 4663 c7 -2 12 -22 12 -44 0 -21 5 -39 10 -39 6 0 10 15 10 33
0 33 -15 58 -34 56 -6 0 -5 -3 2 -6z"/>
<path d="M3542 4658 c-27 -27 -7 -78 29 -78 10 0 20 4 23 8 2 4 -7 8 -21 7
-14 0 -28 6 -30 13 -3 8 6 12 26 12 31 0 36 6 25 34 -7 19 -35 21 -52 4z m46
-15 c2 -8 -6 -13 -22 -13 -19 0 -24 4 -19 15 6 18 34 16 41 -2z"/>
<path d="M3631 4620 l2 -45 6 40 c4 27 12 41 24 43 14 3 17 -4 17 -37 0 -23 5
-41 10 -41 13 0 13 46 0 71 -7 12 -20 18 -35 17 -23 -2 -25 -6 -24 -48z"/>
<path d="M3790 4656 c-28 -35 11 -93 48 -70 35 22 22 84 -18 84 -10 0 -23 -7
-30 -14z m55 -31 c0 -23 -5 -31 -21 -33 -24 -3 -38 20 -28 50 4 13 13 18 27
16 17 -2 22 -10 22 -33z"/>
<path d="M3972 4658 c-27 -27 -7 -78 29 -78 10 0 20 4 23 8 2 4 -7 8 -21 7
-14 0 -28 6 -30 13 -3 8 6 12 26 12 31 0 36 6 25 34 -7 19 -35 21 -52 4z m46
-15 c2 -8 -6 -13 -22 -13 -19 0 -24 4 -19 15 6 18 34 16 41 -2z"/>
<path d="M4050 4665 c0 -6 6 -17 12 -23 10 -10 10 -17 0 -32 -17 -28 -14 -39
4 -15 14 19 16 19 25 3 6 -10 14 -18 20 -18 5 0 3 10 -5 23 -10 15 -12 27 -6
37 15 24 11 37 -5 16 -15 -20 -15 -20 -30 0 -8 10 -15 14 -15 9z"/>
<path d="M4202 4620 c1 -40 2 -41 5 -10 2 19 11 40 20 47 13 10 13 12 -6 10
-18 -1 -21 -7 -19 -47z"/>
<path d="M4293 4663 c25 -6 21 -31 -5 -35 -30 -4 -32 -41 -3 -46 18 -3 19 -2
2 8 -9 6 -15 15 -12 21 11 17 33 9 40 -13 7 -21 8 -20 12 10 5 37 -11 63 -36
61 -13 -1 -13 -2 2 -6z"/>
<path d="M4362 4658 c-18 -18 -14 -53 8 -73 16 -14 18 -21 8 -28 -10 -7 -10
-8 0 -5 8 2 13 7 12 12 -1 5 4 13 12 17 9 6 7 9 -9 9 -41 0 -41 65 0 73 21 4
21 4 2 6 -12 0 -26 -4 -33 -11z"/>
<path d="M4463 4663 c25 -6 21 -31 -5 -35 -30 -4 -32 -41 -3 -46 18 -3 19 -2
2 8 -9 6 -15 15 -12 21 11 17 33 9 40 -13 7 -21 8 -20 12 10 5 37 -11 63 -36
61 -13 -1 -13 -2 2 -6z"/>
<path d="M4530 4656 c-28 -35 11 -93 48 -70 35 22 22 84 -18 84 -10 0 -23 -7
-30 -14z m55 -31 c0 -23 -5 -31 -21 -33 -24 -3 -38 20 -28 50 4 13 13 18 27
16 17 -2 22 -10 22 -33z"/>
<path d="M4711 4622 l2 -47 6 40 c4 27 12 41 24 43 14 3 17 -4 18 -40 l2 -43
6 40 c8 48 8 48 -29 51 -29 2 -30 1 -29 -44z"/>
<path d="M4798 4663 c7 -2 12 -22 12 -44 0 -21 5 -39 10 -39 6 0 10 15 10 33
0 33 -15 58 -34 56 -6 0 -5 -3 2 -6z"/>
<path d="M4883 4663 c25 -6 21 -31 -5 -35 -30 -4 -32 -41 -3 -46 18 -3 19 -2
2 8 -9 6 -15 15 -12 21 11 17 33 9 40 -13 7 -21 8 -20 12 10 5 37 -11 63 -36
61 -13 -1 -13 -2 2 -6z"/>
<path d="M4951 4620 l2 -45 6 40 c4 27 12 41 24 43 14 3 17 -4 17 -37 0 -23 5
-41 10 -41 13 0 13 46 0 71 -7 12 -20 18 -35 17 -23 -2 -25 -6 -24 -48z"/>
<path d="M5040 4625 c0 -25 5 -45 10 -45 6 0 10 20 10 45 0 25 -4 45 -10 45
-5 0 -10 -20 -10 -45z"/>
<path d="M5091 4605 c1 -33 4 -50 6 -38 3 14 9 20 19 16 20 -7 44 15 44 42 0
28 -19 45 -48 42 -20 -1 -22 -6 -21 -62z m54 20 c0 -23 -4 -30 -20 -30 -21 0
-31 25 -21 51 11 28 41 12 41 -21z"/>
<path d="M5194 4628 c1 -40 3 -43 29 -44 26 -1 27 1 26 45 l-2 46 -6 -40 c-9
-57 -38 -61 -44 -6 l-4 41 1 -42z"/>
<path d="M5353 4663 c25 -6 21 -31 -5 -35 -30 -4 -32 -41 -3 -46 18 -3 19 -2
2 8 -9 6 -15 15 -12 21 11 17 33 9 40 -13 7 -21 8 -20 12 10 5 37 -11 63 -36
61 -13 -1 -13 -2 2 -6z"/>
<path d="M5422 4658 c-18 -18 -14 -53 8 -73 16 -14 18 -21 8 -28 -10 -7 -10
-8 0 -5 8 2 13 7 12 12 -1 5 4 13 12 17 9 6 7 9 -9 9 -41 0 -41 65 0 73 21 4
21 4 2 6 -12 0 -26 -4 -33 -11z"/>
<path d="M5523 4663 c25 -6 21 -31 -5 -35 -30 -4 -32 -41 -3 -46 18 -3 19 -2
2 8 -9 6 -15 15 -12 21 11 17 33 9 40 -13 7 -21 8 -20 12 10 5 37 -11 63 -36
61 -13 -1 -13 -2 2 -6z"/>
<path d="M5590 4656 c-28 -35 11 -93 48 -70 35 22 22 84 -18 84 -10 0 -23 -7
-30 -14z m55 -31 c0 -23 -5 -31 -21 -33 -24 -3 -38 20 -28 50 4 13 13 18 27
16 17 -2 22 -10 22 -33z"/>
<path d="M5722 4658 c-27 -27 -7 -78 29 -78 10 0 20 4 23 8 2 4 -7 8 -21 7
-14 0 -28 6 -30 13 -3 8 6 12 26 12 31 0 36 6 25 34 -7 19 -35 21 -52 4z m46
-15 c2 -8 -6 -13 -22 -13 -19 0 -24 4 -19 15 6 18 34 16 41 -2z"/>
<path d="M5844 4628 c1 -40 3 -43 29 -44 26 -1 27 1 26 45 l-2 46 -6 -40 c-9
-57 -38 -61 -44 -6 l-4 41 1 -42z"/>
<path d="M5990 4625 c0 -25 5 -45 10 -45 6 0 10 20 10 45 0 25 -4 45 -10 45
-5 0 -10 -20 -10 -45z"/>
<path d="M6070 4625 c0 -25 5 -45 10 -45 6 0 10 20 10 45 0 25 -4 45 -10 45
-5 0 -10 -20 -10 -45z"/>
<path d="M6127 4662 l23 -7 -20 -33 c-26 -42 -26 -42 13 -41 23 1 26 3 10 6
-27 5 -28 12 -8 39 22 29 18 44 -12 43 -26 -1 -26 -2 -6 -7z"/>
<path d="M6223 4663 c25 -6 21 -31 -5 -35 -30 -4 -32 -41 -3 -46 18 -3 19 -2
2 8 -9 6 -15 15 -12 21 11 17 33 9 40 -13 7 -21 8 -20 12 10 5 37 -11 63 -36
61 -13 -1 -13 -2 2 -6z"/>
<path d="M6292 4658 c-18 -18 -14 -53 8 -73 16 -14 18 -21 8 -28 -10 -7 -10
-8 0 -5 8 2 13 7 12 12 -1 5 4 13 12 17 9 6 7 9 -9 9 -41 0 -41 65 0 73 21 4
21 4 2 6 -12 0 -26 -4 -33 -11z"/>
<path d="M6393 4663 c25 -6 21 -31 -5 -35 -30 -4 -32 -41 -3 -46 18 -3 19 -2
2 8 -9 6 -15 15 -12 21 11 17 33 9 40 -13 7 -21 8 -20 12 10 5 37 -11 63 -36
61 -13 -1 -13 -2 2 -6z"/>
<path d="M6460 4656 c-28 -35 11 -93 48 -70 35 22 22 84 -18 84 -10 0 -23 -7
-30 -14z m55 -31 c0 -23 -5 -31 -21 -33 -24 -3 -38 20 -28 50 4 13 13 18 27
16 17 -2 22 -10 22 -33z"/>
<path d="M6702 4658 c-27 -27 -7 -78 29 -78 10 0 20 4 23 8 2 4 -7 8 -21 7
-14 0 -28 6 -30 13 -3 8 6 12 26 12 31 0 36 6 25 34 -7 19 -35 21 -52 4z m46
-15 c2 -8 -6 -13 -22 -13 -19 0 -24 4 -19 15 6 18 34 16 41 -2z"/>
<path d="M6963 4663 c25 -6 21 -31 -5 -35 -30 -4 -32 -41 -3 -46 18 -3 19 -2
2 8 -9 6 -15 15 -12 21 11 17 33 9 40 -13 7 -21 8 -20 12 10 5 37 -11 63 -36
61 -13 -1 -13 -2 2 -6z"/>
<path d="M7130 4656 c-28 -35 11 -93 48 -70 35 22 22 84 -18 84 -10 0 -23 -7
-30 -14z m55 -31 c0 -23 -5 -31 -21 -33 -24 -3 -38 20 -28 50 4 13 13 18 27
16 17 -2 22 -10 22 -33z"/>
<path d="M7227 4663 c-14 -13 -6 -30 19 -41 29 -14 22 -36 -9 -28 -14 3 -17 2
-10 -5 16 -16 47 -7 51 14 2 11 -6 20 -23 27 -29 11 -24 35 6 27 11 -3 17 -1
13 4 -6 10 -38 12 -47 2z"/>
<path d="M7342 4658 c-27 -27 -7 -78 29 -78 10 0 20 4 23 8 2 4 -7 8 -21 7
-14 0 -28 6 -30 13 -3 8 6 12 26 12 31 0 36 6 25 34 -7 19 -35 21 -52 4z m46
-15 c2 -8 -6 -13 -22 -13 -19 0 -24 4 -19 15 6 18 34 16 41 -2z"/>
<path d="M7460 4625 c0 -25 5 -45 10 -45 6 0 10 20 10 45 0 25 -4 45 -10 45
-5 0 -10 -20 -10 -45z"/>
<path d="M7511 4620 l2 -45 6 40 c4 27 12 41 24 43 14 3 17 -4 17 -37 0 -23 5
-41 10 -41 13 0 13 46 0 71 -7 12 -20 18 -35 17 -23 -2 -25 -6 -24 -48z"/>
<path d="M7670 4656 c-28 -35 11 -93 48 -70 35 22 22 84 -18 84 -10 0 -23 -7
-30 -14z m55 -31 c0 -23 -5 -31 -21 -33 -24 -3 -38 20 -28 50 4 13 13 18 27
16 17 -2 22 -10 22 -33z"/>
<path d="M7772 4620 c1 -40 2 -41 5 -10 2 19 11 40 20 47 13 10 13 12 -6 10
-18 -1 -21 -7 -19 -47z"/>
<path d="M7841 4622 l2 -47 6 40 c4 27 12 41 24 43 14 3 17 -4 18 -40 l2 -43
6 40 c8 48 8 48 -29 51 -29 2 -30 1 -29 -44z"/>
<path d="M7928 4663 c7 -2 12 -22 12 -44 0 -21 5 -39 10 -39 6 0 10 15 10 33
0 33 -15 58 -34 56 -6 0 -5 -3 2 -6z"/>
<path d="M8013 4663 c25 -6 21 -31 -5 -35 -30 -4 -32 -41 -3 -46 18 -3 19 -2
2 8 -9 6 -15 15 -12 21 11 17 33 9 40 -13 7 -21 8 -20 12 10 5 37 -11 63 -36
61 -13 -1 -13 -2 2 -6z"/>
<path d="M8082 4658 c-18 -18 -14 -53 8 -73 16 -14 18 -21 8 -28 -10 -7 -10
-8 0 -5 8 2 13 7 12 12 -1 5 4 13 12 17 9 6 7 9 -9 9 -41 0 -41 65 0 73 21 4
21 4 2 6 -12 0 -26 -4 -33 -11z"/>
<path d="M8160 4656 c-28 -35 11 -93 48 -70 35 22 22 84 -18 84 -10 0 -23 -7
-30 -14z m55 -31 c0 -23 -5 -31 -21 -33 -24 -3 -38 20 -28 50 4 13 13 18 27
16 17 -2 22 -10 22 -33z"/>
<path d="M8262 4658 c-27 -27 -7 -78 29 -78 10 0 20 4 23 8 2 4 -7 8 -21 7
-14 0 -28 6 -30 13 -3 8 6 12 26 12 31 0 36 6 25 34 -7 19 -35 21 -52 4z m46
-15 c2 -8 -6 -13 -22 -13 -19 0 -24 4 -19 15 6 18 34 16 41 -2z"/>
<path d="M8347 4663 c-14 -13 -6 -30 19 -41 29 -14 22 -36 -9 -28 -14 3 -17 2
-10 -5 16 -16 47 -7 51 14 2 11 -6 20 -23 27 -29 11 -24 35 6 27 11 -3 17 -1
13 4 -6 10 -38 12 -47 2z"/>
<path d="M7 4654 c-4 -4 -7 -76 -7 -161 l0 -153 1041 0 1040 0 -40 73 c-22 39
-62 111 -88 158 l-49 86 -15 -37 c-32 -74 15 -70 -929 -70 -748 0 -846 2 -875
16 -35 16 -60 46 -66 78 -2 10 -7 14 -12 10z"/>
<path d="M3891 4593 c-1 -6 -4 -20 -7 -30 -5 -17 -5 -17 6 0 6 10 9 23 6 30
-3 9 -5 9 -5 0z"/>
<path d="M4631 4593 c-1 -6 -4 -20 -7 -30 -5 -17 -5 -17 6 0 6 10 9 23 6 30
-3 9 -5 9 -5 0z"/>
<path d="M0 3853 l0 -478 166 295 c91 162 176 313 188 334 l23 39 -81 143 -80
144 -108 0 -108 0 0 -477z"/>
<path d="M240 4326 c0 -3 329 -595 392 -705 l23 -41 139 0 c110 0 137 3 133
13 -3 7 -78 144 -167 303 -91 162 -164 304 -167 324 -4 27 1 44 21 73 l25 37
-199 0 c-110 0 -200 -2 -200 -4z"/>
<path d="M663 4315 c-17 -7 -36 -22 -42 -34 -27 -49 -14 -79 161 -393 94 -169
174 -308 177 -308 3 0 84 140 179 311 116 209 172 319 172 340 0 40 -25 75
-62 88 -49 17 -545 14 -585 -4z"/>
<path d="M1283 4319 c22 -13 47 -61 47 -91 0 -13 -79 -165 -176 -338 -97 -173
-179 -320 -181 -326 -4 -12 127 -254 137 -254 3 0 38 60 78 133 40 72 131 236
202 362 71 127 130 234 130 239 0 5 -35 71 -77 147 l-78 139 -50 0 c-39 -1
-46 -3 -32 -11z"/>
<path d="M1392 4321 c2 -5 95 -174 207 -375 l205 -366 82 0 83 0 10 53 c66
316 127 665 119 680 -8 16 -35 17 -359 17 -203 0 -349 -4 -347 -9z"/>
<path d="M262 3810 c-67 -120 -122 -221 -122 -224 0 -3 110 -6 245 -6 135 0
245 3 245 6 0 6 -190 350 -229 415 l-16 27 -123 -218z"/>
<path d="M1408 3804 l-126 -224 249 0 c137 0 249 2 249 4 0 2 -55 103 -123
224 l-124 221 -125 -225z"/>
<path d="M112 3538 c-92 -153 -112 -198 -112 -253 0 -50 7 -67 81 -199 l81
-145 148 -3 c164 -3 185 -10 220 -75 l16 -31 201 361 c111 199 199 365 197
369 -3 4 -187 8 -409 8 l-403 0 -20 -32z"/>
<path d="M1266 3548 c-37 -59 -146 -262 -144 -268 2 -3 59 -107 128 -229 77
-138 126 -216 129 -205 6 32 31 62 66 78 25 12 66 16 172 16 l139 0 71 128 71
127 31 170 c18 94 34 178 37 188 5 16 -16 17 -340 17 l-346 0 -14 -22z"/>
<path d="M931 3492 l-19 -38 47 0 47 0 -20 38 c-12 21 -24 38 -28 38 -4 0 -16
-17 -27 -38z"/>
<path d="M914 3428 c-14 -6 -114 -175 -273 -459 -138 -248 -251 -452 -251
-454 0 -3 186 -5 413 -5 l412 0 78 139 c42 77 77 143 77 146 0 18 -335 603
-356 623 -27 23 -65 27 -100 10z"/>
<path d="M0 3067 l0 -127 70 0 c39 0 70 2 70 5 0 6 -129 236 -136 244 -2 2 -4
-53 -4 -122z"/>
<path d="M1827 3036 c-26 -47 -47 -87 -47 -90 0 -3 15 -6 34 -6 l33 0 17 86
c10 47 16 88 14 90 -3 2 -25 -34 -51 -80z"/>
<path d="M0 2550 l0 -371 92 3 92 3 84 150 c46 83 102 183 124 224 l41 74 -26
-7 c-16 -4 -41 0 -61 8 -35 14 -60 50 -146 209 l-42 77 -79 0 -79 0 0 -370z"/>
<path d="M180 2914 c0 -15 133 -241 152 -256 22 -20 69 -23 98 -8 10 5 34 39
54 74 46 82 48 126 7 167 l-29 29 -141 0 c-78 0 -141 -3 -141 -6z"/>
<path d="M1431 2893 c-46 -44 -47 -71 -4 -154 45 -87 73 -107 130 -94 36 9 43
18 110 135 40 69 72 128 73 133 0 4 -63 7 -140 7 -139 0 -140 0 -169 -27z"/>
<path d="M1688 2788 c-62 -112 -80 -136 -111 -151 -30 -15 -43 -17 -68 -8 -31
11 -31 10 -17 -12 8 -12 59 -102 113 -199 54 -98 101 -178 105 -178 4 0 131
652 130 673 0 4 -18 7 -39 7 l-39 0 -74 -132z"/>
<path d="M1292 2613 c-270 -475 -324 -577 -315 -592 5 -9 40 -71 77 -139 l68
-122 252 2 251 3 37 195 c20 107 38 206 39 220 2 16 -52 123 -151 300 -84 151
-156 279 -160 283 -4 5 -48 -63 -98 -150z"/>
<path d="M367 2478 c-8 -13 -88 -155 -177 -316 -144 -259 -161 -296 -156 -326
4 -18 17 -43 29 -54 l23 -22 507 2 507 3 -203 365 -204 365 -156 3 c-153 2
-156 2 -170 -20z"/>
<path d="M713 2493 c57 -108 242 -433 246 -433 3 0 47 73 96 162 50 89 105
188 122 220 l33 58 -251 0 c-137 0 -248 -3 -246 -7z"/>
<path d="M0 2015 c0 -80 2 -145 4 -145 2 0 32 51 66 113 35 61 71 127 82 145
l20 32 -86 0 -86 0 0 -145z"/>
<path d="M7 1836 c-4 -10 -7 -83 -7 -162 l0 -144 790 0 c435 0 790 2 790 4 0
4 27 142 36 184 l4 22 -764 0 -764 0 -31 26 c-17 14 -35 40 -39 57 -7 26 -9
28 -15 13z"/>
<path d="M9830 1516 l0 -46 -55 0 -55 0 0 -66 c0 -36 5 -74 11 -85 14 -27 55
-42 80 -29 13 7 19 7 19 0 0 -19 16 -10 96 58 l80 67 -62 53 c-34 29 -74 62
-88 73 l-26 20 0 -45z m150 -94 c3 -2 -24 -30 -60 -62 -35 -32 -66 -57 -68
-56 -7 8 11 56 22 56 6 0 24 12 39 26 l29 25 -38 35 c-34 31 -39 33 -46 17 -4
-11 -7 -2 -7 25 l-1 44 63 -53 c34 -29 64 -55 67 -57z m-183 21 c-37 -3 -47
-8 -43 -18 3 -8 1 -17 -4 -20 -6 -4 -10 5 -10 19 0 25 2 26 53 24 l52 -2 -48
-3z m0 -19 c-3 -3 -12 -4 -19 -1 -8 3 -5 6 6 6 11 1 17 -2 13 -5z m-12 -84
c10 -11 16 -20 13 -20 -3 0 -13 9 -23 20 -10 11 -16 20 -13 20 3 0 13 -9 23
-20z m47 -12 c-8 -8 -9 -4 -5 13 4 13 8 18 11 10 2 -7 -1 -18 -6 -23z"/>
<path d="M0 755 l0 -755 2433 0 2433 0 37 88 c57 135 67 170 67 230 0 133 -67
240 -166 262 -22 6 -748 10 -1722 10 l-1682 0 4 22 c10 48 26 129 26 133 0 3
-35 5 -77 5 l-78 0 -45 -80 c-38 -67 -60 -95 -60 -76 0 3 79 145 175 315 96
171 175 315 175 320 0 4 -34 70 -76 145 l-76 136 -44 0 -43 0 25 -37 c18 -27
24 -47 21 -68 -3 -16 -85 -172 -182 -345 l-177 -315 41 -77 c23 -43 40 -78 39
-78 -2 0 -21 9 -43 20 -41 21 -77 18 -108 -8 -33 -29 -28 -4 12 68 23 39 41
74 41 76 0 2 -186 4 -412 4 l-413 0 -44 -80 c-25 -44 -49 -80 -54 -80 -12 0
-23 -21 170 322 95 168 173 311 173 318 0 6 -34 72 -76 146 l-75 134 -110 0
-109 0 0 -755z m632 -447 c-7 -7 -12 -8 -12 -2 0 14 12 26 19 19 2 -3 -1 -11
-7 -17z m735 7 c-4 -12 -57 -17 -57 -6 0 14 11 19 36 17 13 0 23 -5 21 -11z
m173 -55 c0 -40 -4 -70 -10 -70 -6 0 -10 30 -10 70 0 40 4 70 10 70 6 0 10
-30 10 -70z m492 48 c-7 -7 -12 -8 -12 -2 0 14 12 26 19 19 2 -3 -1 -11 -7
-17z m1011 15 c-7 -2 -13 -11 -13 -19 0 -8 6 -14 13 -14 9 0 9 -2 0 -8 -6 -4
-13 -21 -16 -37 l-4 -30 -2 33 c-1 25 -5 32 -21 32 -16 0 -20 -7 -20 -30 0
-16 -4 -30 -10 -30 -5 0 -10 16 -10 35 0 32 2 35 30 35 23 0 30 4 30 20 0 13
6 20 18 19 10 0 12 -3 5 -6z m-2790 -10 c-13 -2 -23 -11 -23 -19 0 -8 10 -15
23 -15 l22 -2 -22 -4 c-14 -3 -23 -12 -23 -23 0 -11 9 -20 23 -23 16 -3 13 -5
-10 -6 l-33 -1 0 50 0 50 33 -1 c23 -1 26 -3 10 -6z m517 -3 c0 -5 -4 -10 -10
-10 -5 0 -10 5 -10 10 0 6 5 10 10 10 6 0 10 -4 10 -10z m314 1 c3 -4 -5 -6
-18 -4 -31 6 -52 -27 -36 -57 6 -11 17 -20 25 -20 18 0 20 26 3 33 -7 3 -3 6
10 6 17 1 22 -5 22 -24 0 -21 -5 -25 -28 -25 -15 0 -33 5 -40 12 -15 15 -15
61 0 76 14 14 54 16 62 3z m569 2 c-13 -2 -23 -11 -23 -19 0 -8 10 -15 23 -15
l22 -2 -22 -4 c-14 -3 -23 -12 -23 -23 0 -11 9 -20 23 -23 16 -3 13 -5 -10 -6
l-33 -1 0 50 0 50 33 -1 c23 -1 26 -3 10 -6z m517 -3 c0 -5 -4 -10 -10 -10 -5
0 -10 5 -10 10 0 6 5 10 10 10 6 0 10 -4 10 -10z m230 -5 c10 -12 10 -18 0
-30 -7 -8 -19 -15 -26 -15 -8 0 -14 -9 -14 -20 0 -11 -4 -20 -10 -20 -5 0 -10
23 -10 50 0 46 2 50 24 50 13 0 29 -7 36 -15z m62 -22 l14 -38 14 38 c20 54
40 48 40 -13 0 -27 -4 -50 -10 -50 -5 0 -10 15 -10 33 l-1 32 -14 -32 c-8 -18
-16 -33 -19 -33 -3 0 -12 15 -20 33 l-14 32 -1 -32 c-2 -54 -21 -37 -21 17 0
61 20 68 42 13z m162 31 c19 -7 22 -64 4 -82 -15 -15 -51 -15 -66 0 -7 7 -12
24 -12 38 0 42 31 61 74 44z m236 -9 c10 -12 10 -18 0 -30 -7 -8 -19 -15 -26
-15 -8 0 -14 -9 -14 -20 0 -11 -4 -20 -10 -20 -5 0 -10 23 -10 50 0 46 2 50
24 50 13 0 29 -7 36 -15z m895 5 c4 -7 -2 -9 -18 -5 -19 5 -28 2 -37 -14 -17
-32 4 -65 37 -56 16 4 22 2 18 -5 -8 -14 -48 -13 -63 2 -7 7 -12 24 -12 38 0
14 5 31 12 38 15 15 55 16 63 2z m505 0 c0 -5 -4 -10 -10 -10 -5 0 -10 5 -10
10 0 6 5 10 10 10 6 0 10 -4 10 -10z m-3874 -15 c9 -8 11 -15 5 -15 -15 0 -14
-47 2 -54 6 -3 3 -5 -8 -3 -20 2 -36 47 -27 75 5 16 10 15 28 -3z m180 0 c9
-8 11 -15 5 -15 -15 0 -14 -47 2 -54 6 -3 3 -5 -8 -3 -20 2 -36 47 -27 75 5
16 10 15 28 -3z m720 0 c9 -8 11 -15 5 -15 -15 0 -14 -47 2 -54 6 -3 3 -5 -8
-3 -20 2 -36 47 -27 75 5 16 10 15 28 -3z m500 0 c9 -8 11 -15 5 -15 -15 0
-14 -47 2 -54 6 -3 3 -5 -8 -3 -20 2 -36 47 -27 75 5 16 10 15 28 -3z m180 0
c9 -8 11 -15 5 -15 -15 0 -14 -47 2 -54 6 -3 3 -5 -8 -3 -20 2 -36 47 -27 75
5 16 10 15 28 -3z m2250 0 c9 -8 11 -15 5 -15 -15 0 -14 -47 2 -54 6 -3 3 -5
-8 -3 -20 2 -36 47 -27 75 5 16 10 15 28 -3z m-3896 -14 l-25 -7 23 -12 c32
-18 29 -42 -5 -41 -24 2 -25 2 -5 6 24 5 31 23 8 23 -8 0 -18 5 -21 10 -10 16
4 30 28 29 20 -1 20 -2 -3 -8z m123 2 c-7 -2 -13 -18 -13 -34 0 -16 -4 -29
-10 -29 -5 0 -10 16 -10 35 0 30 3 35 23 34 12 0 16 -3 10 -6z m75 -30 c3 -31
1 -33 -27 -33 -36 0 -44 28 -11 37 11 3 20 10 20 15 0 5 -10 6 -21 3 -15 -5
-19 -4 -14 5 4 6 17 10 28 8 17 -2 23 -11 25 -35z m132 17 c10 -18 8 -20 -22
-20 -33 0 -29 -14 7 -23 12 -3 8 -5 -10 -4 -30 2 -43 23 -31 53 8 21 44 17 56
-6z m75 3 c-2 -10 -4 -21 -4 -25 -1 -4 -11 -9 -23 -11 -19 -4 -18 -5 5 -6 41
-2 33 -36 -8 -36 -29 0 -30 1 -26 40 4 50 7 55 36 55 17 0 22 -5 20 -17z m45
-18 c0 -19 -4 -35 -10 -35 -5 0 -10 16 -10 35 0 19 5 35 10 35 6 0 10 -16 10
-35z m78 -2 c3 -31 1 -33 -27 -33 -36 0 -44 28 -11 37 11 3 20 10 20 15 0 5
-10 6 -21 3 -15 -5 -19 -4 -14 5 4 6 17 10 28 8 17 -2 23 -11 25 -35z m112 17
c10 -18 8 -20 -22 -20 -33 0 -29 -14 7 -23 12 -3 8 -5 -10 -4 -30 2 -43 23
-31 53 8 21 44 17 56 -6z m210 0 c10 -18 8 -20 -22 -20 -33 0 -29 -14 7 -23
12 -3 8 -5 -10 -4 -30 2 -43 23 -31 53 8 21 44 17 56 -6z m50 11 l-25 -7 23
-12 c32 -18 29 -42 -5 -41 -24 2 -25 2 -5 6 24 5 31 23 8 23 -8 0 -18 5 -21
10 -10 16 4 30 28 29 20 -1 20 -2 -3 -8z m148 -28 c3 -31 1 -33 -27 -33 -36 0
-44 28 -11 37 11 3 20 10 20 15 0 5 -10 6 -21 3 -15 -5 -19 -4 -14 5 4 6 17
10 28 8 17 -2 23 -11 25 -35z m83 21 c17 -21 0 -49 -32 -49 -24 0 -36 23 -25
51 7 19 40 18 57 -2z m269 7 l-25 -7 23 -12 c32 -18 29 -42 -5 -41 -24 2 -25
2 -5 6 24 5 31 23 8 23 -8 0 -18 5 -21 10 -10 16 4 30 28 29 20 -1 20 -2 -3
-8z m123 2 c-7 -2 -13 -18 -13 -34 0 -16 -4 -29 -10 -29 -5 0 -10 16 -10 35 0
30 3 35 23 34 12 0 16 -3 10 -6z m75 -30 c3 -31 1 -33 -27 -33 -36 0 -44 28
-11 37 11 3 20 10 20 15 0 5 -10 6 -21 3 -15 -5 -19 -4 -14 5 4 6 17 10 28 8
17 -2 23 -11 25 -35z m132 17 c10 -18 8 -20 -22 -20 -33 0 -29 -14 7 -23 12
-3 8 -5 -10 -4 -30 2 -43 23 -31 53 8 21 44 17 56 -6z m75 3 c-2 -10 -4 -21
-4 -25 -1 -4 -11 -9 -23 -11 -19 -4 -18 -5 5 -6 41 -2 33 -36 -8 -36 -29 0
-30 1 -26 40 4 50 7 55 36 55 17 0 22 -5 20 -17z m45 -18 c0 -19 -4 -35 -10
-35 -5 0 -10 16 -10 35 0 19 5 35 10 35 6 0 10 -16 10 -35z m78 -2 c3 -31 1
-33 -27 -33 -36 0 -44 28 -11 37 11 3 20 10 20 15 0 5 -10 6 -21 3 -15 -5 -19
-4 -14 5 4 6 17 10 28 8 17 -2 23 -11 25 -35z m502 17 c10 -18 8 -20 -22 -20
-33 0 -29 -14 7 -23 12 -3 8 -5 -10 -4 -30 2 -43 23 -31 53 8 21 44 17 56 -6z
m190 0 c10 -18 8 -20 -22 -20 -33 0 -29 -14 7 -23 12 -3 8 -5 -10 -4 -30 2
-43 23 -31 53 8 21 44 17 56 -6z m181 4 c17 -21 0 -49 -32 -49 -24 0 -36 23
-25 51 7 19 40 18 57 -2z m52 9 c-7 -2 -13 -18 -13 -34 0 -16 -4 -29 -10 -29
-5 0 -10 16 -10 35 0 30 3 35 23 34 12 0 16 -3 10 -6z m114 -33 c1 -34 1 -34
-5 -5 -8 36 -26 36 -30 0 -5 -35 -22 -31 -22 5 0 17 -4 30 -10 30 -5 0 -10
-13 -10 -30 0 -16 -4 -30 -10 -30 -5 0 -10 16 -10 35 l0 35 48 -2 c46 -3 47
-4 49 -38z m81 3 c3 -31 1 -33 -27 -33 -36 0 -44 28 -11 37 11 3 20 10 20 15
0 5 -10 6 -21 3 -15 -5 -19 -4 -14 5 4 6 17 10 28 8 17 -2 23 -11 25 -35z m79
-3 c1 -33 1 -33 -5 -6 -10 41 -32 46 -32 7 0 -17 -4 -31 -10 -31 -5 0 -10 16
-10 36 0 33 2 35 28 32 23 -3 27 -8 29 -38z m78 30 c4 -6 -4 -9 -17 -7 -17 1
-23 -3 -23 -18 0 -15 6 -19 25 -17 18 2 22 0 13 -9 -27 -27 -64 8 -49 47 6 16
42 19 51 4z m75 -10 c10 -18 8 -20 -22 -20 -33 0 -29 -14 7 -23 12 -3 8 -5
-10 -4 -30 2 -43 23 -31 53 8 21 44 17 56 -6z m231 4 c17 -21 0 -49 -32 -49
-24 0 -36 23 -25 51 7 19 40 18 57 -2z m52 9 c-7 -2 -13 -18 -13 -34 0 -16 -4
-29 -10 -29 -5 0 -10 16 -10 35 0 30 3 35 23 34 12 0 16 -3 10 -6z m77 -8 c14
-17 -3 -55 -25 -55 -8 0 -15 -7 -15 -15 0 -8 -4 -15 -10 -15 -5 0 -10 22 -10
48 0 43 2 48 24 50 13 1 29 -5 36 -13z m81 -1 c17 -21 0 -49 -32 -49 -24 0
-36 23 -25 51 7 19 40 18 57 -2z m52 9 c-7 -2 -13 -18 -13 -34 0 -16 -4 -29
-10 -29 -5 0 -10 16 -10 35 0 30 3 35 23 34 12 0 16 -3 10 -6z m75 -30 c3 -31
1 -33 -27 -33 -36 0 -44 28 -11 37 11 3 20 10 20 15 0 5 -10 6 -21 3 -15 -5
-19 -4 -14 5 4 6 17 10 28 8 17 -2 23 -11 25 -35z m92 2 c0 -19 -4 -35 -10
-35 -5 0 -10 16 -10 35 0 19 5 35 10 35 6 0 10 -16 10 -35z m36 9 l7 -27 14
27 c19 36 26 28 12 -13 -6 -17 -16 -30 -22 -28 -15 5 -40 67 -27 67 5 0 13
-12 16 -26z m112 -11 c3 -31 1 -33 -27 -33 -36 0 -44 28 -11 37 11 3 20 10 20
15 0 5 -10 6 -21 3 -15 -5 -19 -4 -14 5 4 6 17 10 28 8 17 -2 23 -11 25 -35z
m-2122 -29 c-3 -9 -6 -18 -6 -20 0 -2 -4 -4 -9 -4 -5 0 -7 9 -4 20 3 11 10 20
15 20 6 0 7 -7 4 -16z"/>
<path d="M2360 290 c0 -13 5 -20 13 -17 6 2 12 10 12 17 0 7 -6 15 -12 18 -8
2 -13 -5 -13 -18z"/>
<path d="M2574 296 c-11 -28 0 -61 20 -61 27 0 44 30 30 53 -15 22 -43 27 -50
8z"/>
<path d="M2820 290 c0 -13 5 -20 13 -17 6 2 12 10 12 17 0 7 -6 15 -12 18 -8
2 -13 -5 -13 -18z"/>
<path d="M480 240 c0 -5 5 -10 10 -10 6 0 10 5 10 10 0 6 -4 10 -10 10 -5 0
-10 -4 -10 -10z"/>
<path d="M605 270 c-3 -5 3 -10 15 -10 12 0 18 5 15 10 -3 6 -10 10 -15 10 -5
0 -12 -4 -15 -10z"/>
<path d="M687 274 c-8 -8 1 -24 14 -24 5 0 9 7 9 15 0 15 -12 20 -23 9z"/>
<path d="M680 210 c0 -5 6 -10 14 -10 8 0 18 5 21 10 3 6 -3 10 -14 10 -12 0
-21 -4 -21 -10z"/>
<path d="M810 240 c0 -5 5 -10 10 -10 6 0 10 5 10 10 0 6 -4 10 -10 10 -5 0
-10 -4 -10 -10z"/>
<path d="M915 270 c-3 -5 3 -10 15 -10 12 0 18 5 15 10 -3 6 -10 10 -15 10 -5
0 -12 -4 -15 -10z"/>
<path d="M1125 270 c-3 -5 3 -10 15 -10 12 0 18 5 15 10 -3 6 -10 10 -15 10
-5 0 -12 -4 -15 -10z"/>
<path d="M1330 240 c0 -5 5 -10 10 -10 6 0 10 5 10 10 0 6 -4 10 -10 10 -5 0
-10 -4 -10 -10z"/>
<path d="M1403 264 c-8 -21 13 -42 28 -27 13 13 5 43 -11 43 -6 0 -13 -7 -17
-16z"/>
<path d="M1880 240 c0 -5 5 -10 10 -10 6 0 10 5 10 10 0 6 -4 10 -10 10 -5 0
-10 -4 -10 -10z"/>
<path d="M2005 270 c-3 -5 3 -10 15 -10 12 0 18 5 15 10 -3 6 -10 10 -15 10
-5 0 -12 -4 -15 -10z"/>
<path d="M2087 274 c-8 -8 1 -24 14 -24 5 0 9 7 9 15 0 15 -12 20 -23 9z"/>
<path d="M2080 210 c0 -5 6 -10 14 -10 8 0 18 5 21 10 3 6 -3 10 -14 10 -12 0
-21 -4 -21 -10z"/>
<path d="M2210 240 c0 -5 5 -10 10 -10 6 0 10 5 10 10 0 6 -4 10 -10 10 -5 0
-10 -4 -10 -10z"/>
<path d="M2705 270 c-3 -5 3 -10 15 -10 12 0 18 5 15 10 -3 6 -10 10 -15 10
-5 0 -12 -4 -15 -10z"/>
<path d="M2895 270 c-3 -5 3 -10 15 -10 12 0 18 5 15 10 -3 6 -10 10 -15 10
-5 0 -12 -4 -15 -10z"/>
<path d="M3073 264 c-8 -21 13 -42 28 -27 13 13 5 43 -11 43 -6 0 -13 -7 -17
-16z"/>
<path d="M3330 240 c0 -5 5 -10 10 -10 6 0 10 5 10 10 0 6 -4 10 -10 10 -5 0
-10 -4 -10 -10z"/>
<path d="M3555 270 c-3 -5 3 -10 15 -10 12 0 18 5 15 10 -3 6 -10 10 -15 10
-5 0 -12 -4 -15 -10z"/>
<path d="M3783 264 c-8 -21 13 -42 28 -27 13 13 5 43 -11 43 -6 0 -13 -7 -17
-16z"/>
<path d="M3920 255 c0 -17 5 -25 13 -22 6 2 12 12 12 22 0 10 -6 20 -12 23 -8
2 -13 -6 -13 -23z"/>
<path d="M3993 264 c-8 -21 13 -42 28 -27 13 13 5 43 -11 43 -6 0 -13 -7 -17
-16z"/>
<path d="M4130 240 c0 -5 5 -10 10 -10 6 0 10 5 10 10 0 6 -4 10 -10 10 -5 0
-10 -4 -10 -10z"/>
<path d="M4370 240 c0 -5 5 -10 10 -10 6 0 10 5 10 10 0 6 -4 10 -10 10 -5 0
-10 -4 -10 -10z"/>
<path d="M274 1447 c20 -35 112 -200 205 -367 l170 -305 140 -3 c78 -1 141 -1
141 2 0 2 -75 138 -167 302 -185 330 -194 355 -144 408 l24 26 -202 0 -202 0
35 -63z"/>
<path d="M638 1480 c-50 -50 -43 -70 147 -413 141 -254 172 -304 182 -291 6 9
86 149 177 313 182 327 187 341 137 392 l-29 29 -292 0 -292 0 -30 -30z"/>
<path d="M1393 1503 c2 -5 32 -59 67 -121 34 -62 64 -111 66 -109 6 5 44 196
44 218 0 17 -8 19 -91 19 -49 0 -88 -3 -86 -7z"/>
<path d="M264 999 c-65 -117 -120 -216 -122 -221 -2 -4 107 -8 242 -8 135 0
246 2 246 5 0 6 -231 418 -240 428 -4 4 -61 -87 -126 -204z"/>
<path d="M1396 970 c-58 -105 -106 -192 -106 -195 0 -3 33 -5 73 -5 l73 0 36
193 c20 105 35 193 33 195 -1 1 -50 -83 -109 -188z"/>
<path d="M932 680 c-12 -22 -22 -40 -22 -42 0 -2 22 -3 49 -3 l49 0 -19 37
c-10 20 -22 39 -27 42 -4 2 -17 -13 -30 -34z"/>
</g>
</svg>
